<svg xmlns="http://www.w3.org/2000/svg" viewBox="0 0 500 500"><g id="freepik--background-complete--inject-203"><polygon points="64.48 421.28 72.78 475.81 120.99 475.81 132.18 422.07 64.48 421.28" style="fill:#ebebeb"></polygon><path d="M125.44,456.23c0,.15-12.36.28-27.59.28s-27.59-.13-27.59-.28,12.35-.29,27.59-.29S125.44,456.07,125.44,456.23Z" style="fill:#fafafa"></path><path d="M125.62,453.54c0,.16-12.43.29-27.77.29s-27.78-.13-27.78-.29,12.44-.28,27.78-.28S125.62,453.39,125.62,453.54Z" style="fill:#fafafa"></path><path d="M125.53,450.52c0,.15-12.44.28-27.78.28S70,450.67,70,450.52s12.43-.29,27.77-.29S125.53,450.36,125.53,450.52Z" style="fill:#fafafa"></path><path d="M78.32,472.7a87,87,0,0,1-2.4-13.83,45.25,45.25,0,0,1,1.48,6.86A44.62,44.62,0,0,1,78.32,472.7Z" style="fill:#fafafa"></path><path d="M81.6,472.12a52.17,52.17,0,0,1-.6-6.7,55.86,55.86,0,0,1-.32-6.72,31.65,31.65,0,0,1,.88,6.68A32.47,32.47,0,0,1,81.6,472.12Z" style="fill:#fafafa"></path><path d="M87.57,472.12A55,55,0,0,1,86,458.27a60.66,60.66,0,0,1,.93,6.91A58.07,58.07,0,0,1,87.57,472.12Z" style="fill:#fafafa"></path><path d="M91.77,472.4a34.66,34.66,0,0,1-.67-7,33,33,0,0,1,.22-7,60.79,60.79,0,0,1,.35,7A60.14,60.14,0,0,1,91.77,472.4Z" style="fill:#fafafa"></path><path d="M99.2,472.12a38.15,38.15,0,0,1-.51-6.63,39.08,39.08,0,0,1,.06-6.64,77.46,77.46,0,0,1,.45,13.27Z" style="fill:#fafafa"></path><path d="M104.62,472.4a41.73,41.73,0,0,1-.22-6.85,43.2,43.2,0,0,1,.33-6.85,41.27,41.27,0,0,1,.23,6.86A40.83,40.83,0,0,1,104.62,472.4Z" style="fill:#fafafa"></path><path d="M109.71,471.68a45.25,45.25,0,0,1,.41-7.16,46.13,46.13,0,0,1,1-7.11,43.89,43.89,0,0,1-.41,7.16A46.63,46.63,0,0,1,109.71,471.68Z" style="fill:#fafafa"></path><path d="M116.27,471a24,24,0,0,1,.81-6.09,24.39,24.39,0,0,1,1.79-5.87,51.08,51.08,0,0,1-1.24,6A54.27,54.27,0,0,1,116.27,471Z" style="fill:#fafafa"></path><path d="M111.63,313.68l-.06.27-.23.77c-.22.72-.53,1.7-.92,2.94s-.9,2.84-1.41,4.67-1.16,3.89-1.74,6.22-1.27,4.84-1.88,7.59-1.23,5.68-1.86,8.78c-1.15,6.22-2.21,13.09-3,20.35s-1,14.21-1.13,20.54c0,3.16,0,6.16.09,9s.2,5.43.34,7.82.33,4.54.48,6.43.31,3.53.46,4.86.24,2.32.32,3.06c0,.33,0,.59.07.8a1,1,0,0,1,0,.28,1,1,0,0,1-.06-.27c0-.21-.07-.47-.12-.79-.11-.75-.25-1.77-.43-3.06s-.39-3-.56-4.85-.43-4-.56-6.44-.34-5-.41-7.82-.12-5.83-.14-9c.07-6.34.38-13.3,1.09-20.59s1.82-14.16,3-20.39c.64-3.1,1.23-6.06,1.92-8.79s1.31-5.28,1.94-7.59,1.28-4.38,1.83-6.2,1.06-3.38,1.51-4.64.77-2.21,1-2.92c.12-.3.21-.55.28-.75A1,1,0,0,1,111.63,313.68Z" style="fill:#ebebeb"></path><path d="M102.92,347.45a17.92,17.92,0,0,1,7.5-9.47c1.19-.74,2.7-1.34,4-.73,1.69.81,1.82,3.18,1.32,5a13.17,13.17,0,0,1-5.46,7.44,11.09,11.09,0,0,1-8.18,2.06" style="fill:#ebebeb"></path><path d="M100,370.25c1.24-4.71,5-11.4,8.89-14.31a5.62,5.62,0,0,1,2-1.08,2.32,2.32,0,0,1,2.16.47c.8.76.72,2,.49,3.12A19,19,0,0,1,99.5,372.61" style="fill:#ebebeb"></path><path d="M99.19,390.31a27.45,27.45,0,0,1,9-11.28,4.28,4.28,0,0,1,3.13-1.12c1.7.31,2.47,2.39,2.32,4.11-.31,3.55-3,6.4-5.82,8.6a35.85,35.85,0,0,1-8.3,4.27" style="fill:#ebebeb"></path><path d="M99.64,404.74a26.4,26.4,0,0,1,7.64-8.69,5.4,5.4,0,0,1,2.29-1,2.32,2.32,0,0,1,2.25.85c.77,1.13,0,2.65-.78,3.73a21.81,21.81,0,0,1-10.9,8" style="fill:#ebebeb"></path><path d="M99.26,398.88a85.7,85.7,0,0,0-10.92-11.13c-.62-.52-1.4-1.07-2.17-.82a1.65,1.65,0,0,0-1,1.47,4.15,4.15,0,0,0,.42,1.82,21.17,21.17,0,0,0,14.06,11.83" style="fill:#ebebeb"></path><path d="M99.61,380.11,91,369.65A10.3,10.3,0,0,0,88.25,367a3.54,3.54,0,0,0-3.66,0,3.47,3.47,0,0,0-1.18,3.45,8.91,8.91,0,0,0,1.68,3.44,25.35,25.35,0,0,0,6.25,6.64c2.52,1.74,4.81,2.86,7.83,2.42" style="fill:#ebebeb"></path><path d="M100.81,359a29.88,29.88,0,0,0-8.64-13,5.07,5.07,0,0,0-2.25-1.32c-1.72-.33-3.38,1.11-3.93,2.77a7.08,7.08,0,0,0,.78,5.68,14.87,14.87,0,0,0,4,4.26,34.51,34.51,0,0,0,9.55,5.16" style="fill:#ebebeb"></path><path d="M104.23,340.12c-.83-6.06-4-11.11-7.64-16-.77-1-1.85-2.14-3.12-1.94a2.44,2.44,0,0,0-1.79,1.54,5.5,5.5,0,0,0-.34,2.42,18.71,18.71,0,0,0,12.15,16.73" style="fill:#ebebeb"></path><path d="M106.64,330.5a49.91,49.91,0,0,1-.32-9.38,16.7,16.7,0,0,1,3.12-8.73,7.16,7.16,0,0,1,3.11-2.48,3.92,3.92,0,0,1,3.82.5,4.15,4.15,0,0,1,1.31,3.37,10.59,10.59,0,0,1-1,3.59c-2.28,5.5-6.09,11.59-10.07,13.13" style="fill:#ebebeb"></path><path d="M69.26,337.73a5.58,5.58,0,0,1,0,.76c0,.56,0,1.3,0,2.21s0,2.12,0,3.48.05,2.9.17,4.6c.15,3.41.48,7.47,1,12s1.32,9.38,2.38,14.48,2.35,9.89,3.64,14.22,2.66,8.16,3.89,11.34c.58,1.61,1.2,3,1.7,4.28s1,2.34,1.35,3.21.64,1.51.86,2a5.2,5.2,0,0,1,.27.72,3.15,3.15,0,0,1-.37-.67c-.25-.51-.57-1.17-1-2s-.91-1.92-1.44-3.17-1.17-2.66-1.78-4.26c-1.29-3.18-2.66-7-4-11.34s-2.62-9.14-3.71-14.25S70.55,365.28,70,360.79s-.78-8.57-.88-12c-.09-1.71-.07-3.26-.09-4.62s0-2.53,0-3.49.06-1.64.08-2.2A3.23,3.23,0,0,1,69.26,337.73Z" style="fill:#e0e0e0"></path><path d="M70.6,362.59a12.8,12.8,0,0,1,3.06-8.06,3.08,3.08,0,0,1,2.55-1.35c1.32.19,1.92,1.77,2,3.11a9.35,9.35,0,0,1-2.11,6.23,7.9,7.9,0,0,1-5.13,3.17" style="fill:#e0e0e0"></path><path d="M73.51,378.74c-.16-3.47.95-8.84,3-11.66a4.27,4.27,0,0,1,1.15-1.17,1.66,1.66,0,0,1,1.57-.14,2.33,2.33,0,0,1,1,2,13.55,13.55,0,0,1-6.53,12.67" style="fill:#e0e0e0"></path><path d="M77.28,392.58A19.65,19.65,0,0,1,81,383a3.07,3.07,0,0,1,1.89-1.44c1.22-.15,2.2,1.1,2.47,2.3.55,2.49-.68,5-2.11,7.11a26,26,0,0,1-4.74,4.7" style="fill:#e0e0e0"></path><path d="M80.7,402.3A18.87,18.87,0,0,1,84,394.74a3.78,3.78,0,0,1,1.33-1.19,1.68,1.68,0,0,1,1.72.09c.76.6.59,1.8.27,2.71a15.51,15.51,0,0,1-5.7,7.79" style="fill:#e0e0e0"></path><path d="M79.18,398.39a62.08,62.08,0,0,0-9.83-5.22,1.76,1.76,0,0,0-1.66-.09,1.16,1.16,0,0,0-.37,1.21,2.93,2.93,0,0,0,.68,1.15,15.08,15.08,0,0,0,12.12,5" style="fill:#e0e0e0"></path><path d="M75.37,385.54l-8.09-5.28a7.5,7.5,0,0,0-2.46-1.2,2.52,2.52,0,0,0-2.5.76,2.46,2.46,0,0,0-.06,2.6,6.34,6.34,0,0,0,1.88,2,18.15,18.15,0,0,0,5.69,3.18c2.08.64,3.89.91,5.85,0" style="fill:#e0e0e0"></path><path d="M71.64,370.89a21.38,21.38,0,0,0-8.67-7,3.65,3.65,0,0,0-1.82-.41,2.7,2.7,0,0,0-2.08,2.73,5,5,0,0,0,1.76,3.7,10.71,10.71,0,0,0,3.66,2,24.73,24.73,0,0,0,7.61,1.45" style="fill:#e0e0e0"></path><path d="M69.91,357.32c-1.87-3.95-5.1-6.71-8.65-9.26a2.63,2.63,0,0,0-2.54-.65,1.77,1.77,0,0,0-.89,1.43,4.12,4.12,0,0,0,.29,1.73A13.38,13.38,0,0,0,70,359.35" style="fill:#e0e0e0"></path><path d="M69.48,350.25a34.91,34.91,0,0,1-2.23-6.32,11.88,11.88,0,0,1,.24-6.61A5.07,5.07,0,0,1,69.07,335a2.79,2.79,0,0,1,2.71-.48,3,3,0,0,1,1.62,2,7.6,7.6,0,0,1,.11,2.65c-.37,4.24-1.65,9.21-4,11.11" style="fill:#e0e0e0"></path><path d="M130.2,337.2a3.23,3.23,0,0,1,.07.76c0,.56,0,1.29.08,2.21s.07,2.12,0,3.48,0,2.91-.08,4.62c-.1,3.42-.39,7.49-.88,12s-1.28,9.42-2.34,14.54-2.37,9.92-3.7,14.25-2.72,8.16-4,11.34c-.61,1.6-1.25,3-1.78,4.26s-1,2.31-1.44,3.17-.71,1.48-1,2a3.15,3.15,0,0,1-.37.67,5.2,5.2,0,0,1,.27-.72l.86-2c.39-.87.85-1.94,1.35-3.2s1.12-2.68,1.7-4.29c1.23-3.18,2.56-7,3.89-11.34s2.56-9.12,3.64-14.22,1.82-10,2.37-14.48.85-8.54,1-11.95c.11-1.7.12-3.25.17-4.6s0-2.53,0-3.48,0-1.64,0-2.2A4.12,4.12,0,0,1,130.2,337.2Z" style="fill:#ebebeb"></path><path d="M128.86,362.06A12.82,12.82,0,0,0,125.8,354a3.1,3.1,0,0,0-2.55-1.35c-1.32.19-1.92,1.77-2,3.11A9.41,9.41,0,0,0,123.4,362a7.9,7.9,0,0,0,5.13,3.17" style="fill:#ebebeb"></path><path d="M126,378.21c.16-3.47-1-8.83-3-11.66a4.27,4.27,0,0,0-1.15-1.17,1.66,1.66,0,0,0-1.57-.14,2.33,2.33,0,0,0-1,2,13.54,13.54,0,0,0,6.53,12.67" style="fill:#ebebeb"></path><path d="M122.18,392.05a19.65,19.65,0,0,0-3.69-9.62A3,3,0,0,0,116.6,381c-1.22-.16-2.2,1.09-2.47,2.3-.55,2.48.68,5,2.11,7.11A25.86,25.86,0,0,0,121,395.1" style="fill:#ebebeb"></path><path d="M118.76,401.77a18.93,18.93,0,0,0-3.33-7.56,3.73,3.73,0,0,0-1.34-1.19,1.66,1.66,0,0,0-1.71.09c-.76.61-.59,1.8-.27,2.71a15.51,15.51,0,0,0,5.7,7.79" style="fill:#ebebeb"></path><path d="M120.28,397.87a60.9,60.9,0,0,1,9.83-5.23,1.76,1.76,0,0,1,1.66-.09,1.16,1.16,0,0,1,.37,1.21,3,3,0,0,1-.68,1.16,15.11,15.11,0,0,1-12.12,5" style="fill:#ebebeb"></path><path d="M124.08,385l8.1-5.28a7.5,7.5,0,0,1,2.46-1.2,2.52,2.52,0,0,1,2.5.76,2.48,2.48,0,0,1,.06,2.61,6.45,6.45,0,0,1-1.88,2,18.32,18.32,0,0,1-5.69,3.17c-2.08.64-3.89.91-5.85,0" style="fill:#ebebeb"></path><path d="M127.82,370.36a21.46,21.46,0,0,1,8.67-7,3.65,3.65,0,0,1,1.82-.41,2.7,2.7,0,0,1,2.08,2.73,5.06,5.06,0,0,1-1.76,3.7,10.71,10.71,0,0,1-3.66,2,24.73,24.73,0,0,1-7.61,1.45" style="fill:#ebebeb"></path><path d="M129.54,356.79c1.88-4,5.11-6.71,8.66-9.26a2.63,2.63,0,0,1,2.54-.65,1.77,1.77,0,0,1,.89,1.44,4.11,4.11,0,0,1-.29,1.72,13.38,13.38,0,0,1-11.88,8.78" style="fill:#ebebeb"></path><path d="M130,349.72a35.08,35.08,0,0,0,2.23-6.31,11.91,11.91,0,0,0-.24-6.62,5.12,5.12,0,0,0-1.58-2.36,2.79,2.79,0,0,0-2.71-.48,3,3,0,0,0-1.62,2,7.61,7.61,0,0,0-.12,2.65c.38,4.24,1.66,9.21,4,11.11" style="fill:#ebebeb"></path><path d="M59,410.48v10.2a4,4,0,0,0,4,4h69.81a4,4,0,0,0,4-4v-10.2Z" style="fill:#ebebeb"></path><polygon points="65 424.7 65.58 427.95 130 432.54 131.63 424.7 65 424.7" style="fill:#e0e0e0"></polygon><path d="M456.9,207.55a2.77,2.77,0,0,1,1.19-.14h.4l-.13.13c0-.46.07-.79.13-.79s.11.33.13.79v.13h-.54A2.6,2.6,0,0,1,456.9,207.55Z" style="fill:#e0e0e0"></path><path d="M453.72,207.55c0-.07.36-.14.8-.14s.79.07.79.14-.35.14-.79.14S453.72,207.63,453.72,207.55Z" style="fill:#e0e0e0"></path><path d="M450.54,207.55c0-.07.36-.14.8-.14s.79.07.79.14-.35.14-.79.14S450.54,207.63,450.54,207.55Z" style="fill:#e0e0e0"></path><path d="M447.36,207.55c0-.07.36-.14.8-.14s.79.07.79.14-.35.14-.79.14S447.36,207.63,447.36,207.55Z" style="fill:#e0e0e0"></path><path d="M444.18,207.55c0-.07.36-.14.8-.14s.79.07.79.14-.35.14-.79.14S444.18,207.63,444.18,207.55Z" style="fill:#e0e0e0"></path><path d="M441,207.55c0-.07.36-.14.8-.14s.79.07.79.14-.35.14-.79.14S441,207.63,441,207.55Z" style="fill:#e0e0e0"></path><path d="M437.82,207.55c0-.07.36-.14.8-.14s.79.07.79.14-.35.14-.79.14S437.82,207.63,437.82,207.55Z" style="fill:#e0e0e0"></path><path d="M434.64,207.55c0-.07.36-.14.8-.14s.79.07.79.14-.35.14-.79.14S434.64,207.63,434.64,207.55Z" style="fill:#e0e0e0"></path><path d="M431.46,207.55c0-.07.36-.14.8-.14s.79.07.79.14-.35.14-.79.14S431.46,207.63,431.46,207.55Z" style="fill:#e0e0e0"></path><path d="M428.28,207.55c0-.07.36-.14.8-.14s.79.07.79.14-.35.14-.79.14S428.28,207.63,428.28,207.55Z" style="fill:#e0e0e0"></path><path d="M425.1,207.55c0-.07.36-.14.8-.14s.79.07.79.14-.35.14-.79.14S425.1,207.63,425.1,207.55Z" style="fill:#e0e0e0"></path><path d="M421.93,207.55c0-.07.35-.14.79-.14s.8.07.8.14-.36.14-.8.14S421.93,207.63,421.93,207.55Z" style="fill:#e0e0e0"></path><path d="M418.75,207.55c0-.07.35-.14.79-.14s.8.07.8.14-.36.14-.8.14S418.75,207.63,418.75,207.55Z" style="fill:#e0e0e0"></path><path d="M415.57,207.55c0-.07.35-.14.79-.14s.8.07.8.14-.36.14-.8.14S415.57,207.63,415.57,207.55Z" style="fill:#e0e0e0"></path><path d="M412.39,207.55c0-.07.35-.14.79-.14s.8.07.8.14-.36.14-.8.14S412.39,207.63,412.39,207.55Z" style="fill:#e0e0e0"></path><path d="M409.21,207.55c0-.07.35-.14.79-.14s.8.07.8.14-.36.14-.8.14S409.21,207.63,409.21,207.55Z" style="fill:#e0e0e0"></path><path d="M406,207.55c0-.07.35-.14.79-.14s.8.07.8.14-.36.14-.8.14S406,207.63,406,207.55Z" style="fill:#e0e0e0"></path><path d="M402.85,207.55c0-.07.35-.14.79-.14s.8.07.8.14-.36.14-.8.14S402.85,207.63,402.85,207.55Z" style="fill:#e0e0e0"></path><path d="M401.85,205.36c.08,0,.14.36.14.8s-.06.79-.14.79-.13-.35-.13-.79S401.78,205.36,401.85,205.36Z" style="fill:#e0e0e0"></path><path d="M401.85,202.18c.08,0,.14.36.14.8s-.06.79-.14.79-.13-.35-.13-.79S401.78,202.18,401.85,202.18Z" style="fill:#e0e0e0"></path><path d="M401.85,199c.08,0,.14.36.14.8s-.06.79-.14.79-.13-.35-.13-.79S401.78,199,401.85,199Z" style="fill:#e0e0e0"></path><path d="M401.85,195.83c.08,0,.14.35.14.79s-.06.79-.14.79-.13-.35-.13-.79S401.78,195.83,401.85,195.83Z" style="fill:#e0e0e0"></path><path d="M401.85,192.65c.08,0,.14.35.14.79s-.06.8-.14.8-.13-.36-.13-.8S401.78,192.65,401.85,192.65Z" style="fill:#e0e0e0"></path><path d="M401.85,189.47c.08,0,.14.35.14.79s-.06.8-.14.8-.13-.36-.13-.8S401.78,189.47,401.85,189.47Z" style="fill:#e0e0e0"></path><path d="M401.85,186.29c.08,0,.14.35.14.79s-.06.8-.14.8-.13-.36-.13-.8S401.78,186.29,401.85,186.29Z" style="fill:#e0e0e0"></path><path d="M401.85,183.11c.08,0,.14.35.14.79s-.06.8-.14.8-.13-.36-.13-.8S401.78,183.11,401.85,183.11Z" style="fill:#e0e0e0"></path><path d="M401.85,179.93c.08,0,.14.35.14.79s-.06.8-.14.8-.13-.36-.13-.8S401.78,179.93,401.85,179.93Z" style="fill:#e0e0e0"></path><path d="M401.85,176.75c.08,0,.14.35.14.79s-.06.8-.14.8-.13-.36-.13-.8S401.78,176.75,401.85,176.75Z" style="fill:#e0e0e0"></path><path d="M401.85,173.57c.08,0,.14.35.14.79s-.06.8-.14.8-.13-.36-.13-.8S401.78,173.57,401.85,173.57Z" style="fill:#e0e0e0"></path><path d="M401.85,170.39c.08,0,.14.35.14.79s-.06.8-.14.8-.13-.36-.13-.8S401.78,170.39,401.85,170.39Z" style="fill:#e0e0e0"></path><path d="M401.85,167.21c.08,0,.14.35.14.79s-.06.8-.14.8-.13-.36-.13-.8S401.78,167.21,401.85,167.21Z" style="fill:#e0e0e0"></path><path d="M401.85,164c.08,0,.14.35.14.79s-.06.8-.14.8-.13-.36-.13-.8S401.78,164,401.85,164Z" style="fill:#e0e0e0"></path><path d="M401.85,160.85c.08,0,.14.35.14.79s-.06.8-.14.8-.13-.36-.13-.8S401.78,160.85,401.85,160.85Z" style="fill:#e0e0e0"></path><path d="M401.85,157.67c.08,0,.14.35.14.79s-.06.8-.14.8-.13-.36-.13-.8S401.78,157.67,401.85,157.67Z" style="fill:#e0e0e0"></path><path d="M401.85,154.49c.08,0,.14.35.14.79s-.06.8-.14.8-.13-.36-.13-.8S401.78,154.49,401.85,154.49Z" style="fill:#e0e0e0"></path><path d="M401.85,151.31c.08,0,.14.35.14.79s-.06.8-.14.8-.13-.36-.13-.8S401.78,151.31,401.85,151.31Z" style="fill:#e0e0e0"></path><path d="M404.64,150.91c0,.08-.36.14-.8.14s-.79-.06-.79-.14.36-.13.79-.13S404.64,150.84,404.64,150.91Z" style="fill:#e0e0e0"></path><path d="M407.82,150.91c0,.08-.36.14-.8.14s-.79-.06-.79-.14.36-.13.79-.13S407.82,150.84,407.82,150.91Z" style="fill:#e0e0e0"></path><path d="M411,150.91c0,.08-.36.14-.8.14s-.79-.06-.79-.14.36-.13.79-.13S411,150.84,411,150.91Z" style="fill:#e0e0e0"></path><path d="M414.18,150.91c0,.08-.36.14-.8.14s-.79-.06-.79-.14.35-.13.79-.13S414.18,150.84,414.18,150.91Z" style="fill:#e0e0e0"></path><path d="M417.36,150.91c0,.08-.36.14-.8.14s-.79-.06-.79-.14.35-.13.79-.13S417.36,150.84,417.36,150.91Z" style="fill:#e0e0e0"></path><path d="M420.54,150.91c0,.08-.36.14-.8.14s-.79-.06-.79-.14.35-.13.79-.13S420.54,150.84,420.54,150.91Z" style="fill:#e0e0e0"></path><path d="M423.72,150.91c0,.08-.36.14-.8.14s-.79-.06-.79-.14.35-.13.79-.13S423.72,150.84,423.72,150.91Z" style="fill:#e0e0e0"></path><path d="M426.9,150.91c0,.08-.36.14-.8.14s-.79-.06-.79-.14.35-.13.79-.13S426.9,150.84,426.9,150.91Z" style="fill:#e0e0e0"></path><path d="M430.08,150.91c0,.08-.36.14-.8.14s-.79-.06-.79-.14.35-.13.79-.13S430.08,150.84,430.08,150.91Z" style="fill:#e0e0e0"></path><path d="M433.26,150.91c0,.08-.36.14-.8.14s-.79-.06-.79-.14.35-.13.79-.13S433.26,150.84,433.26,150.91Z" style="fill:#e0e0e0"></path><path d="M436.44,150.91c0,.08-.36.14-.8.14s-.79-.06-.79-.14.35-.13.79-.13S436.44,150.84,436.44,150.91Z" style="fill:#e0e0e0"></path><path d="M439.62,150.91c0,.08-.36.14-.8.14s-.79-.06-.79-.14.35-.13.79-.13S439.62,150.84,439.62,150.91Z" style="fill:#e0e0e0"></path><path d="M442.8,150.91c0,.08-.36.14-.8.14s-.79-.06-.79-.14.35-.13.79-.13S442.8,150.84,442.8,150.91Z" style="fill:#e0e0e0"></path><path d="M446,150.91c0,.08-.36.14-.8.14s-.79-.06-.79-.14.35-.13.79-.13S446,150.84,446,150.91Z" style="fill:#e0e0e0"></path><path d="M449.16,150.91c0,.08-.36.14-.8.14s-.79-.06-.79-.14.35-.13.79-.13S449.16,150.84,449.16,150.91Z" style="fill:#e0e0e0"></path><path d="M452.34,150.91c0,.08-.36.14-.8.14s-.79-.06-.79-.14.35-.13.79-.13S452.34,150.84,452.34,150.91Z" style="fill:#e0e0e0"></path><path d="M455.52,150.91c0,.08-.36.14-.8.14s-.79-.06-.79-.14.35-.13.79-.13S455.52,150.84,455.52,150.91Z" style="fill:#e0e0e0"></path><path d="M458.49,151.12s-.07-.08-.09-.21l.09.1a4.3,4.3,0,0,1-.59,0c-.44,0-.8-.06-.8-.14s.36-.13.8-.13a3.13,3.13,0,0,1,.59,0l.11,0,0,.07C458.56,151,458.53,151.12,458.49,151.12Z" style="fill:#e0e0e0"></path><ellipse cx="458.49" cy="153.5" rx="0.14" ry="0.79" style="fill:#e0e0e0"></ellipse><path d="M458.49,157.48c-.07,0-.14-.36-.14-.8s.07-.79.14-.79.14.35.14.79S458.57,157.48,458.49,157.48Z" style="fill:#e0e0e0"></path><path d="M458.49,160.66c-.07,0-.14-.36-.14-.8s.07-.79.14-.79.14.35.14.79S458.57,160.66,458.49,160.66Z" style="fill:#e0e0e0"></path><path d="M458.49,163.84c-.07,0-.14-.36-.14-.8s.07-.79.14-.79.14.35.14.79S458.57,163.84,458.49,163.84Z" style="fill:#e0e0e0"></path><path d="M458.49,167c-.07,0-.14-.36-.14-.8s.07-.79.14-.79.14.35.14.79S458.57,167,458.49,167Z" style="fill:#e0e0e0"></path><ellipse cx="458.49" cy="169.4" rx="0.14" ry="0.79" style="fill:#e0e0e0"></ellipse><ellipse cx="458.49" cy="172.58" rx="0.14" ry="0.79" style="fill:#e0e0e0"></ellipse><path d="M458.49,176.56c-.07,0-.14-.36-.14-.8s.07-.79.14-.79.14.35.14.79S458.57,176.56,458.49,176.56Z" style="fill:#e0e0e0"></path><path d="M458.49,179.73c-.07,0-.14-.35-.14-.79s.07-.8.14-.8.14.36.14.8S458.57,179.73,458.49,179.73Z" style="fill:#e0e0e0"></path><path d="M458.49,182.91c-.07,0-.14-.35-.14-.79s.07-.8.14-.8.14.36.14.8S458.57,182.91,458.49,182.91Z" style="fill:#e0e0e0"></path><path d="M458.49,186.09c-.07,0-.14-.35-.14-.79s.07-.8.14-.8.14.36.14.8S458.57,186.09,458.49,186.09Z" style="fill:#e0e0e0"></path><path d="M458.49,189.27c-.07,0-.14-.35-.14-.79s.07-.8.14-.8.14.36.14.8S458.57,189.27,458.49,189.27Z" style="fill:#e0e0e0"></path><ellipse cx="458.49" cy="191.66" rx="0.14" ry="0.79" style="fill:#e0e0e0"></ellipse><ellipse cx="458.49" cy="194.84" rx="0.14" ry="0.79" style="fill:#e0e0e0"></ellipse><path d="M458.49,198.81c-.07,0-.14-.35-.14-.79s.07-.8.14-.8.14.36.14.8S458.57,198.81,458.49,198.81Z" style="fill:#e0e0e0"></path><path d="M458.49,202c-.07,0-.14-.35-.14-.79s.07-.8.14-.8.14.36.14.8S458.57,202,458.49,202Z" style="fill:#e0e0e0"></path><path d="M458.49,205.17c-.07,0-.14-.35-.14-.79s.07-.8.14-.8.14.36.14.8S458.57,205.17,458.49,205.17Z" style="fill:#e0e0e0"></path><rect x="456.39" y="204.88" width="4.19" height="4.19" style="fill:#e0e0e0"></rect><rect x="399.76" y="205.45" width="4.19" height="4.19" style="fill:#e0e0e0"></rect><rect x="456.39" y="148.41" width="4.19" height="4.19" style="fill:#e0e0e0"></rect><rect x="399.76" y="148.82" width="4.19" height="4.19" style="fill:#e0e0e0"></rect><path d="M394.94,80.3,384,83.1l-.53,3.36a7.07,7.07,0,0,0,0,2.65A2.14,2.14,0,0,0,385,90.76a8.88,8.88,0,0,0,3.18-.23l.22.85L378.08,94l-.21-.85a4.8,4.8,0,0,0,2.39-2.08,19,19,0,0,0,1.45-5.36l4.76-27.57.44-.11,17.68,22.56a16,16,0,0,0,3.8,3.88,3.67,3.67,0,0,0,2.4.26l.22.85-15,3.83-.22-.84.62-.16a4.88,4.88,0,0,0,2.41-1.15,1.26,1.26,0,0,0,.23-1.18,2.62,2.62,0,0,0-.35-.81c-.07-.13-.44-.65-1.13-1.54Zm-1.21-1.49-7.35-9.5-2,11.9Z" style="fill:#e0e0e0"></path><polygon points="59.19 197.07 46.84 241.85 61.98 252.64 96.02 260.94 109.52 210.39 59.19 197.07" style="fill:#f5f5f5"></polygon><path d="M53.41,239.84l-6.57,2A19.85,19.85,0,0,0,52.16,248a28.71,28.71,0,0,0,9.82,4.6S54.7,248.41,53.41,239.84Z" style="fill:#ebebeb"></path><path d="M99.69,224.89c0,.08-8.61-2.11-19.18-4.9s-19.12-5.12-19.09-5.21,8.6,2.12,19.17,4.91S99.71,224.8,99.69,224.89Z" style="fill:#e0e0e0"></path><path d="M97.69,231.74c0,.09-8.6-2.11-19.17-4.9s-19.12-5.11-19.1-5.2,8.61,2.11,19.18,4.9S97.72,231.66,97.69,231.74Z" style="fill:#e0e0e0"></path><path d="M96.29,237.92c0,.08-8.6-2.11-19.17-4.9S58,227.9,58,227.82s8.61,2.11,19.18,4.9S96.32,237.84,96.29,237.92Z" style="fill:#e0e0e0"></path><path d="M94.7,243.8c0,.08-8.61-2.11-19.18-4.9s-19.11-5.12-19.09-5.2,8.6,2.11,19.17,4.9S94.72,243.72,94.7,243.8Z" style="fill:#e0e0e0"></path><rect x="60.32" y="82.08" width="38" height="30.38" transform="translate(-21.94 23.11) rotate(-14.59)" style="fill:#f5f5f5"></rect><rect x="61.63" y="84" width="35.33" height="26.55" transform="translate(-21.95 23.11) rotate(-14.59)" style="fill:#ebebeb"></rect><polygon points="65.54 114.57 73.32 95.49 83.32 103.56 86.95 96.91 99.73 105.67 65.54 114.57" style="fill:#e0e0e0"></polygon><path d="M83.35,90.79a2.78,2.78,0,1,1-3.39-2A2.78,2.78,0,0,1,83.35,90.79Z" style="fill:#e0e0e0"></path><rect x="76.93" y="54.32" width="57.42" height="45.9" transform="translate(-5.17 7.62) rotate(-4.03)" style="fill:#f5f5f5"></rect><rect x="78.91" y="57.21" width="53.38" height="40.12" transform="translate(-5.17 7.62) rotate(-4.03)" style="fill:#ebebeb"></rect><polygon points="80.39 99.16 97.23 72.97 109.85 87.73 117.08 78.86 133.64 95.41 80.39 99.16" style="fill:#e0e0e0"></polygon><path d="M113.43,68.77a4.21,4.21,0,1,1-4.49-3.9A4.21,4.21,0,0,1,113.43,68.77Z" style="fill:#e0e0e0"></path><path d="M424.83,333.26a5,5,0,1,1,5,5A5,5,0,0,1,424.83,333.26Z" style="fill:#e0e0e0"></path><circle cx="443.14" cy="306.51" r="3.13" style="fill:#e0e0e0"></circle><path d="M426.62,284.37a2.87,2.87,0,1,1,3.63,1.8A2.87,2.87,0,0,1,426.62,284.37Z" style="fill:#e0e0e0"></path><circle cx="409.33" cy="384.34" r="4.67" style="fill:#e0e0e0"></circle><circle cx="410.45" cy="420.84" r="3.35" style="fill:#e0e0e0"></circle><path d="M409.15,459.3a2.38,2.38,0,1,1-2.38-2.38A2.38,2.38,0,0,1,409.15,459.3Z" style="fill:#e0e0e0"></path><circle cx="423.23" cy="384.34" r="4.67" style="fill:#e0e0e0"></circle><path d="M443.3,417.49a3.35,3.35,0,1,1-3.35-3.35A3.35,3.35,0,0,1,443.3,417.49Z" style="fill:#e0e0e0"></path><path d="M430.16,454.7a2.38,2.38,0,1,1-4.64-1.06,2.38,2.38,0,1,1,4.64,1.06Z" style="fill:#e0e0e0"></path><path d="M422.27,356.56a7.73,7.73,0,1,1-7.73-7.72A7.73,7.73,0,0,1,422.27,356.56Z" style="fill:#e0e0e0"></path><path d="M419.62,323.62a5,5,0,1,1-5-5A5,5,0,0,1,419.62,323.62Z" style="fill:#e0e0e0"></path><path d="M402.74,333.26a5,5,0,1,1-5-5A5,5,0,0,1,402.74,333.26Z" style="fill:#e0e0e0"></path><path d="M387.55,360a3.13,3.13,0,1,1-3.13-3.13A3.13,3.13,0,0,1,387.55,360Z" style="fill:#e0e0e0"></path><path d="M401,382.14a2.87,2.87,0,1,1-3.64-1.79A2.88,2.88,0,0,1,401,382.14Z" style="fill:#e0e0e0"></path><path d="M445.94,310s-8,18.05-11.26,21.91a18,18,0,0,1-5.88-3.52S438.38,310,440,306.92Z" style="fill:#f5f5f5"></path><path d="M445.3,302.73c-.12-.38-12.67-19.39-12.67-19.39l-5.51,3.8,12,19.78Z" style="fill:#f5f5f5"></path><path d="M432.14,282.13s8.13-9.14,2.44-12.26-7.2,7.65-6.69,10.74l4.49,1.7" style="fill:#f5f5f5"></path><path d="M436.63,476H397.11a12.51,12.51,0,0,1,12.51-12.51h14.5A12.51,12.51,0,0,1,436.63,476Z" style="fill:#e0e0e0"></path><path d="M415.22,362.4c.12,0,.22,22.71.22,50.73s-.1,50.74-.22,50.74-.22-22.72-.22-50.74S415.1,362.4,415.22,362.4Z" style="fill:#e0e0e0"></path><path d="M406.29,359.19s-4.63,7.51-3.35,22.35H427.2s1.51-17.65-4.24-22.76Z" style="fill:#f5f5f5"></path><polygon points="403.92 388.25 415.05 388.25 414 419.65 406.38 419.65 403.92 388.25" style="fill:#f5f5f5"></polygon><polygon points="406.22 421.81 403.92 457.84 409.48 458.9 414.46 422.86 406.22 421.81" style="fill:#f5f5f5"></polygon><path d="M401.48,463.49s.08-4.43,4.56-4.59,5,4.59,5,4.59Z" style="fill:#f5f5f5"></path><polygon points="420.15 389.47 430.27 384.84 442.39 413.82 435.45 416.99 420.15 389.47" style="fill:#f5f5f5"></polygon><polygon points="435.65 417.49 425.38 452.11 430.57 454.38 443.45 420.35 435.65 417.49" style="fill:#f5f5f5"></polygon><path d="M422.93,457.44c.29.48,13.7,5.5,13.7,5.5s3.18-2.84-6.85-7.4l-2.14-1a3.18,3.18,0,0,0-4.33,1.82Z" style="fill:#f5f5f5"></path><path d="M402.17,326.41c-.37.08.31,19.85,4.65,27.19,0,0,15.58-.51,16,0s5.43-17.21,5-26.72C427.75,326.88,416.8,323,402.17,326.41Z" style="fill:#f5f5f5"></path><path d="M412.46,295.71s-10,.22-8.12,12.88,3.89,12.66,4,13,12.5-.86,12.5-.86S427.61,295.17,412.46,295.71Z" style="fill:#f5f5f5"></path><path d="M381.63,356.56s8-18,11.26-21.91a18,18,0,0,1,5.88,3.52s-9.59,18.32-11.23,21.42Z" style="fill:#f5f5f5"></path><path d="M382.27,363.78c.12.38,12.67,19.39,12.67,19.39l5.5-3.79-12-19.79Z" style="fill:#f5f5f5"></path><path d="M395.15,385s-8.12,9.14-2.43,12.26,7.2-7.64,6.69-10.74l-4.49-1.69" style="fill:#f5f5f5"></path></g><g id="freepik--Shape--inject-203"><path d="M379.23,182c.93-8.31-5-15.71-11.1-21.48s-12.94-11.64-14.7-19.82c-1.36-6.26.59-12.69,1.47-19s.29-13.71-4.67-17.76c-8.71-7.14-23.73.13-32.58-6.84-9.41-7.42-1-24.17-11.57-29.78-10.22-5.4-18.74,10.5-24.91-2.84-8.28-17.92-24.4-7.92-24.4-7.92-6.33,4.58-9.65,16.4-17.22,18.33-11.21,2.85-23-10.81-33.23-5.4-10.59,5.6-5.25,24.14-14.66,31.56-8.84,7-23.73-1.31-32.44,5.82-5,4.06-5.55,11.42-4.67,17.76s2.83,12.77,1.47,19c-1.76,8.18-8.65,14-14.7,19.83s-12,13.16-11.1,21.47c1,9.14,10,15.49,12.4,24.37,3.57,13.22-8.39,27.46-3.54,40.27,6.11,16.12,31.71,14.35,41.58,28.48,3.72,5.32,4.57,12.11,7.42,17.94,6.25,12.79,21.51,19.12,35.74,18.92,12-.16,23.54-4.11,34.75-8.59,8.79,3.14,17.78,5.53,27.06,5.66,14.23.2,29.49-6.14,35.74-18.92,2.85-5.83,3.7-12.62,7.42-17.94,9.87-14.14,35.47-12.36,41.58-28.48,4.85-12.81-7.11-27-3.54-40.28C369.22,197.51,378.2,191.16,379.23,182Z" style="fill:#92E3A9"></path><g style="opacity:0.8"><path d="M379.23,182c.93-8.31-5-15.71-11.1-21.48s-12.94-11.64-14.7-19.82c-1.36-6.26.59-12.69,1.47-19s.29-13.71-4.67-17.76c-8.71-7.14-23.73.13-32.58-6.84-9.41-7.42-1-24.17-11.57-29.78-10.22-5.4-18.74,10.5-24.91-2.84-8.28-17.92-24.4-7.92-24.4-7.92-6.33,4.58-9.65,16.4-17.22,18.33-11.21,2.85-23-10.81-33.23-5.4-10.59,5.6-5.25,24.14-14.66,31.56-8.84,7-23.73-1.31-32.44,5.82-5,4.06-5.55,11.42-4.67,17.76s2.83,12.77,1.47,19c-1.76,8.18-8.65,14-14.7,19.83s-12,13.16-11.1,21.47c1,9.14,10,15.49,12.4,24.37,3.57,13.22-8.39,27.46-3.54,40.27,6.11,16.12,31.71,14.35,41.58,28.48,3.72,5.32,4.57,12.11,7.42,17.94,6.25,12.79,21.51,19.12,35.74,18.92,12-.16,23.54-4.11,34.75-8.59,8.79,3.14,17.78,5.53,27.06,5.66,14.23.2,29.49-6.14,35.74-18.92,2.85-5.83,3.7-12.62,7.42-17.94,9.87-14.14,35.47-12.36,41.58-28.48,4.85-12.81-7.11-27-3.54-40.28C369.22,197.51,378.2,191.16,379.23,182Z" style="fill:#fff"></path></g></g><g id="freepik--color-palette--inject-203"><path d="M201.52,155.19l10.9-12.89a2,2,0,0,0-.2-2.87L162.93,97.74a2,2,0,0,0-2.86.27L149.16,110.9a2,2,0,0,0,.21,2.88l49.28,41.68A2,2,0,0,0,201.52,155.19Z" style="fill:#f5f5f5"></path><path d="M201.52,155.19a2.06,2.06,0,0,1-.32.33A2.13,2.13,0,0,1,200,156a2,2,0,0,1-1-.23,6.61,6.61,0,0,1-1-.72l-2.26-1.9c-3.42-2.86-8.34-7-14.41-12.11L160,123l-6.16-5.21c-1.06-.88-2.12-1.78-3.19-2.69-.54-.46-1.07-.88-1.62-1.39a2.2,2.2,0,0,1-.46-2.16,2.72,2.72,0,0,1,.59-1l.7-.82,1.4-1.66,2.84-3.35,5.8-6.86a2.27,2.27,0,0,1,2.22-.75,2.41,2.41,0,0,1,1,.58l.85.73c1.15,1,2.28,1.92,3.41,2.88l6.66,5.63,12.58,10.66L208,135.69l4.32,3.67a2.15,2.15,0,0,1,.51,2.51,5,5,0,0,1-.76,1l-.78.91L206,150l-3.33,3.88-.88,1-.3.33.28-.36.84-1,3.28-3.93,5.21-6.2.77-.93a4.74,4.74,0,0,0,.73-1,1.92,1.92,0,0,0-.47-2.25l-4.33-3.65-21.34-18-12.6-10.64q-3.27-2.77-6.66-5.63l-3.4-2.88L163,98a1.93,1.93,0,0,0-.9-.5,1.9,1.9,0,0,0-1.87.63L154.4,105l-2.84,3.36-1.4,1.66-.7.82a2.41,2.41,0,0,0-.53.85,1.86,1.86,0,0,0,.39,1.82c.48.45,1.06.91,1.58,1.36l3.18,2.69,6.16,5.22,21.29,18.06L195.87,153l2.24,1.92a6.12,6.12,0,0,0,.92.72,1.92,1.92,0,0,0,.92.24,2.16,2.16,0,0,0,1.23-.41C201.41,155.31,201.51,155.18,201.52,155.19Z" style="fill:#263238"></path><rect x="155.06" y="101.35" width="11.8" height="17.2" transform="translate(214.03 297.51) rotate(-140.14)" style="fill:#92E3A9"></rect><rect x="184.55" y="125.98" width="11.8" height="17.2" transform="translate(250.38 359.94) rotate(-140.14)" style="fill:#92E3A9"></rect><rect x="174.71" y="117.76" width="11.8" height="17.2" transform="translate(238.25 339.11) rotate(-140.14)" style="fill:#92E3A9"></rect><rect x="164.86" y="109.53" width="11.8" height="17.2" transform="translate(226.11 318.26) rotate(-140.14)" style="fill:#92E3A9"></rect><g style="opacity:0.8"><rect x="152.35" y="104.05" width="17.2" height="11.8" transform="translate(-26.6 163.03) rotate(-50.14)"></rect></g><g style="opacity:0.5"><rect x="184.55" y="125.98" width="11.8" height="17.2" transform="translate(250.38 359.94) rotate(-140.14)"></rect></g><g style="opacity:0.6000000000000001"><rect x="174.71" y="117.76" width="11.8" height="17.2" transform="translate(238.25 339.11) rotate(-140.14)"></rect></g><g style="opacity:0.7000000000000001"><rect x="164.86" y="109.53" width="11.8" height="17.2" transform="translate(226.11 318.26) rotate(-140.14)"></rect></g><path d="M199.36,154.63,213.22,145a2,2,0,0,0,.56-2.8L177.4,90a2,2,0,0,0-2.82-.45l-13.86,9.65a2,2,0,0,0-.55,2.8l36.37,52.21A2,2,0,0,0,199.36,154.63Z" style="fill:#f5f5f5"></path><path d="M199.36,154.62a1.49,1.49,0,0,1-.38.24,2.15,2.15,0,0,1-1.31.12,1.94,1.94,0,0,1-.87-.44,6,6,0,0,1-.72-.94l-1.68-2.38c-2.54-3.61-6.19-8.82-10.69-15.25s-9.87-14.11-15.82-22.63l-4.56-6.54L161,103.42l-.6-.86a5.78,5.78,0,0,1-.57-.92,2.21,2.21,0,0,1,.34-2.17,4,4,0,0,1,.85-.71l.87-.61,1.76-1.22,3.57-2.49,7.29-5.08a2.26,2.26,0,0,1,2.31-.17,2.31,2.31,0,0,1,.86.81l.64.92,2.52,3.62,4.93,7.08L195.05,115l15.75,22.68c1.12,1.62,2.19,3.14,3.19,4.63a2.13,2.13,0,0,1-.41,2.5c-.68.55-1.35,1-2,1.42L205,150.78l-4.17,2.87-1.09.73c-.25.17-.38.24-.38.24l.36-.27,1.07-.76,4.13-2.92,6.56-4.61c.62-.45,1.33-.89,2-1.4a1.92,1.92,0,0,0,.36-2.25c-1-1.44-2.08-3-3.19-4.58l-15.82-22.64c-3-4.26-6.09-8.74-9.33-13.37l-4.93-7.08L178,91.12l-.64-.91a1.84,1.84,0,0,0-.74-.7,1.89,1.89,0,0,0-1.94.15l-7.29,5.07-3.57,2.48-1.76,1.23-.87.61a3.61,3.61,0,0,0-.78.64,1.88,1.88,0,0,0-.29,1.82,4.46,4.46,0,0,0,.54.85l.59.86,2.36,3.38,4.55,6.55,15.75,22.68,10.6,15.31c.62.9,1.17,1.71,1.66,2.4a5.11,5.11,0,0,0,.69.93,1.87,1.87,0,0,0,.83.44,2,2,0,0,0,1.27-.09A2.76,2.76,0,0,0,199.36,154.62Z" style="fill:#263238"></path><rect x="167.41" y="93.3" width="11.8" height="17.2" transform="translate(189.96 302.26) rotate(-125.2)" style="fill:#92E3A9"></rect><rect x="189.56" y="124.69" width="11.8" height="17.2" transform="matrix(-0.58, -0.82, 0.82, -0.58, 199.22, 369.85)" style="fill:#92E3A9"></rect><rect x="182.17" y="114.22" width="11.8" height="17.2" transform="translate(196.13 347.29) rotate(-125.2)" style="fill:#92E3A9"></rect><rect x="174.77" y="103.73" width="11.8" height="17.2" transform="translate(193.04 324.72) rotate(-125.2)" style="fill:#92E3A9"></rect><g style="opacity:0.5"><rect x="167.41" y="93.3" width="11.8" height="17.2" transform="translate(189.96 302.26) rotate(-125.2)"></rect></g><g style="opacity:0.30000000000000004"><rect x="182.17" y="114.22" width="11.8" height="17.2" transform="translate(196.13 347.29) rotate(-125.2)"></rect></g><g style="opacity:0.4"><rect x="174.77" y="103.73" width="11.8" height="17.2" transform="translate(193.04 324.72) rotate(-125.2)"></rect></g><path d="M199.44,156.68l16-5.29a2.07,2.07,0,0,0,1.3-2.62L195.85,85.28A2.07,2.07,0,0,0,193.24,84l-16,5.29a2.06,2.06,0,0,0-1.3,2.62l20.93,63.49A2.07,2.07,0,0,0,199.44,156.68Z" style="fill:#f5f5f5"></path><path d="M199.44,156.68a1.55,1.55,0,0,1-.45.11,2.08,2.08,0,0,1-1.33-.31,2.27,2.27,0,0,1-.7-.74,8.79,8.79,0,0,1-.43-1.14l-1-2.88c-1.45-4.34-3.54-10.61-6.11-18.35s-5.63-17-9-27.23q-1.27-3.84-2.6-7.87c-.45-1.34-.89-2.69-1.35-4.06-.22-.69-.45-1.37-.68-2.07a2.68,2.68,0,0,1-.18-1.14,2.29,2.29,0,0,1,.4-1.1,2.24,2.24,0,0,1,.92-.75c.37-.15.71-.24,1.06-.36l2.12-.7,4.29-1.42,8.76-2.89a2.25,2.25,0,0,1,2.32.59,2.56,2.56,0,0,1,.59,1.08l.36,1.1,1.44,4.35,2.8,8.51L206,115.5c3.36,10.26,6.4,19.49,8.94,27.26.64,1.93,1.24,3.78,1.82,5.53.07.22.14.43.2.67a2.06,2.06,0,0,1,0,.7,2.09,2.09,0,0,1-.56,1.24,2.37,2.37,0,0,1-1.14.66l-1.17.39-7.91,2.57-5,1.62-1.3.41-.45.13.44-.16,1.29-.45,5-1.68,7.9-2.63,1.17-.39a2.23,2.23,0,0,0,1.05-.61,2,2,0,0,0,.5-1.12,2.67,2.67,0,0,0-.24-1.28c-.58-1.74-1.19-3.59-1.84-5.53-2.56-7.75-5.62-17-9-27.23l-5.31-16.08L197.55,91c-.47-1.44-1-2.89-1.43-4.35l-.37-1.1a2.19,2.19,0,0,0-.5-.94,1.91,1.91,0,0,0-2-.5L184.53,87l-4.29,1.41-2.12.7c-.34.12-.72.23-1,.35a1.82,1.82,0,0,0-.77.63,2,2,0,0,0-.18,1.94l.68,2.06c.45,1.37.9,2.72,1.34,4.07l2.59,7.87,8.95,27.25,6,18.39.93,2.88a9.27,9.27,0,0,0,.41,1.14,2.21,2.21,0,0,0,.66.72,2,2,0,0,0,1.29.33A3.17,3.17,0,0,0,199.44,156.68Z" style="fill:#263238"></path><path d="M199.52,156.81c.07,0,.1.81.51,2.21a12.11,12.11,0,0,0,3.16,5.18,11.64,11.64,0,0,0,8.17,3.22,11.44,11.44,0,0,0,4.42-21.91,11.72,11.72,0,0,0-6-1l-1,.13c-.28,0-.51.11-.7.14a2.14,2.14,0,0,1-.59.09,2.21,2.21,0,0,1,.55-.23,6.84,6.84,0,0,1,.7-.21l1-.2a11.79,11.79,0,0,1,9.88,3.2,12,12,0,0,1,2.8,4.18,11.93,11.93,0,0,1-1.2,11.14,12.66,12.66,0,0,1-2,2.3,12.17,12.17,0,0,1-7.86,3,12.27,12.27,0,0,1-4.93-1,12.13,12.13,0,0,1-3.61-2.48,11.81,11.81,0,0,1-3.06-5.46,9,9,0,0,1-.26-1.7A1.57,1.57,0,0,1,199.52,156.81Z" style="fill:#263238"></path><path d="M204.78,143.26a2.57,2.57,0,1,1-1.64,3.25A2.58,2.58,0,0,1,204.78,143.26Z" style="fill:#263238"></path><rect x="182.16" y="85.47" width="11.8" height="17.2" transform="translate(157.62 302.13) rotate(-108.25)" style="fill:#92E3A9"></rect><rect x="186.16" y="97.59" width="11.8" height="17.2" transform="translate(151.35 321.85) rotate(-108.25)" style="fill:#92E3A9"></rect><rect x="190.18" y="109.78" width="11.8" height="17.2" transform="translate(145.05 341.67) rotate(-108.25)" style="fill:#92E3A9"></rect><rect x="194.19" y="121.96" width="11.8" height="17.2" transform="translate(138.76 361.47) rotate(-108.25)" style="fill:#92E3A9"></rect><g style="opacity:0.8"><rect x="194.19" y="121.96" width="11.8" height="17.2" transform="translate(138.76 361.47) rotate(-108.25)" style="fill:#fff"></rect></g><g style="opacity:0.6000000000000001"><rect x="190.18" y="109.78" width="11.8" height="17.2" transform="translate(145.05 341.67) rotate(-108.25)" style="fill:#fff"></rect></g><g style="opacity:0.4"><rect x="186.16" y="97.59" width="11.8" height="17.2" transform="translate(151.35 321.85) rotate(-108.25)" style="fill:#fff"></rect></g></g><g id="freepik--Device--inject-203"><path d="M298.47,92.57,308,136.79l40-25.12-6.14-33.46a1.86,1.86,0,0,0-2.43-1.43L299.69,90.41A1.86,1.86,0,0,0,298.47,92.57Z" style="fill:#455a64"></path><polygon points="348.68 150.69 307.98 136.79 348.03 111.51 376.41 116.35 348.68 150.69" style="fill:#455a64"></polygon><polygon points="310.14 133.99 346.6 111.11 340.18 79.03 301.71 92.94 310.14 133.99" style="fill:#263238"></polygon><path d="M313.06,136.58,348.84,113l0,0h0l16,3.2.2,0-.15.14-1.54,1.45-27.17,25.48,0,0-.05,0-23.14-6.68,23.19,6.53h-.08l27.14-25.52,1.54-1.44,0,.18-16-3.21.07,0Z" style="fill:#263238"></path><path d="M358.23,123.9l.64.11,1.83.37,6.62,1.35.14,0-.09.11-7.51,8.89,0,.05-.07,0-.53-.15-9.48-2.71-.15,0,.11-.11,6.17-5.73,1.74-1.6c.4-.37.62-.55.62-.55l-.61.61-1.71,1.64-6.08,5.76,0-.16,9.49,2.69.53.15-.11,0,7.54-8.86.05.14-6.58-1.43-1.83-.41C358.45,124,358.23,123.9,358.23,123.9Z" style="fill:#263238"></path><path d="M361.78,124.47s-1.66,2-3.81,4.29-3.93,4.2-4,4.16,1.66-2,3.81-4.3S361.74,124.43,361.78,124.47Z" style="fill:#263238"></path><path d="M323.5,120.9s0-.13.08-.36.18-.61.28-1l1.07-3.67c.94-3.2,2.19-7.43,3.57-12.11,2.58-8.67,4.35-14.58,5.1-17.11a3.36,3.36,0,0,1-.06.36c-.05.23-.15.57-.26,1-.27,1-.62,2.2-1,3.68-.94,3.2-2.18,7.43-3.55,12.12l-3.63,12.09c-.46,1.47-.83,2.7-1.13,3.66-.12.37-.23.7-.32,1S323.5,120.9,323.5,120.9Z" style="fill:#fff"></path><path d="M322.13,114.69c-.05,0,1.13-4.39,2.66-9.76s2.8-9.71,2.85-9.7S326.51,99.61,325,105,322.19,114.7,322.13,114.69Z" style="fill:#fff"></path></g><g id="freepik--Pen--inject-203"><polygon points="415.8 165.37 369.25 172.11 366.15 184.42 360.09 188.13 372.1 206.99 378.16 203 391.01 204.69 415.8 165.37" style="fill:#fafafa"></polygon><path d="M415.8,165.37l-24.67,39.4-.05.07H391l-12.85-1.67.11,0-6.07,4-.13.09-.08-.13-6.13-9.63L360,188.21l-.09-.14L360,188l6.06-3.7-.07.09q1.62-6.39,3.11-12.31l0-.09.1,0,46.57-6.59-46.53,6.89.12-.11-3.09,12.31,0,.06,0,0-6.06,3.7.05-.22,5.88,9.23,6.13,9.63-.22,0,6.07-4,.05,0h.05L391,204.54l-.14.07C405.54,181.53,415.1,166.46,415.8,165.37Z" style="fill:#263238"></path><path d="M390.83,190.69a6.71,6.71,0,0,1-9.36-2,6.94,6.94,0,0,1,2-9.51,6.69,6.69,0,0,1,9.35,2A6.94,6.94,0,0,1,390.83,190.69Z" style="fill:#263238"></path><path d="M415.8,165.37c.05.07-6.33,4.51-14.24,9.9s-14.36,9.72-14.41,9.64,6.32-4.51,14.24-9.9S415.75,165.29,415.8,165.37Z" style="fill:#263238"></path><path d="M248.25,275.82h0a11.07,11.07,0,0,1,3.14-15.13l102.48-68.2,11.72,18.42L263.21,279A10.68,10.68,0,0,1,248.25,275.82Z" style="fill:#92E3A9"></path><polygon points="366.71 212.67 352.94 191.02 360.34 186.16 374.12 207.81 366.71 212.67" style="fill:#92E3A9"></polygon><polygon points="414.76 168.81 412.08 164.89 415.94 162.17 418.62 166.09 414.76 168.81" style="fill:#92E3A9"></polygon><path d="M437.71,197.12c-.2.14-10.5-14.62-23-33s-22.48-33.32-22.28-33.46,10.49,14.61,23,32.95S437.9,197,437.71,197.12Z" style="fill:#92E3A9"></path><path d="M438.22,197.86a1.38,1.38,0,0,1-1.94-.35,1.43,1.43,0,0,1,.35-2,1.37,1.37,0,0,1,1.94.36A1.42,1.42,0,0,1,438.22,197.86Z" style="fill:#92E3A9"></path><path d="M393.22,131.87a1.38,1.38,0,0,1-1.94-.35,1.43,1.43,0,0,1,.35-2,1.37,1.37,0,0,1,1.94.36A1.42,1.42,0,0,1,393.22,131.87Z" style="fill:#92E3A9"></path><polygon points="353.87 192.49 365.59 210.91 362.85 212.73 352.89 193.15 353.87 192.49" style="opacity:0.30000000000000004"></polygon><polygon points="364.11 192.09 361.07 203.37 362.69 206.36 365.82 194.77 364.11 192.09" style="fill:#fff;opacity:0.5"></polygon></g><g id="freepik--Pencil--inject-203"><polygon points="100.17 160.98 117.94 193.97 194.03 254.12 211.56 229.81 136.86 171.18 100.17 160.98" style="fill:#92E3A9"></polygon><g style="opacity:0.7000000000000001"><path d="M136.86,171.18a2.21,2.21,0,0,1-2.72,2.22,6.67,6.67,0,0,1-7,10.55,7.79,7.79,0,0,1-9.37,9.78L100.17,161Z" style="fill:#fff"></path></g><path d="M107.31,174.25s7.11,1,7.89-9.09l-15-4.18Z" style="fill:#92E3A9"></path><path d="M127.18,184l74.89,58.28-8,11.89L117.94,194l-.13-.24a7.59,7.59,0,0,0,3.42.08,8,8,0,0,0,4-2.09,7.67,7.67,0,0,0,2.29-4.88A7.86,7.86,0,0,0,127.18,184Z" style="opacity:0.30000000000000004"></path><path d="M134.14,173.4l75.17,59.53,2.25-3.12-74.7-58.63a2.35,2.35,0,0,1-2.17,2.31A2.86,2.86,0,0,1,134.14,173.4Z" style="opacity:0.30000000000000004"></path><path d="M119.05,182.51a.59.59,0,0,0,.34.22.81.81,0,0,0,.93-.56,3.09,3.09,0,0,0-.14-1.89,2,2,0,0,0-.69-.93,1.31,1.31,0,0,0-1.23-.17,1.72,1.72,0,0,0-.87,1.1,5.74,5.74,0,0,0-.23,1.58,8.61,8.61,0,0,0,.6,3.48,2.19,2.19,0,0,0,1.27,1.29,1.93,1.93,0,0,0,1.79-.46,5.17,5.17,0,0,0,1.29-3.85,7.43,7.43,0,0,0-4-6.57,1.93,1.93,0,0,0-1.71.1,3.47,3.47,0,0,0-1.18,1.2,9.88,9.88,0,0,0-1.2,2.85,11.34,11.34,0,0,0-.24,4.48c.09.53.18.94.25,1.21a3.1,3.1,0,0,1,.1.42,8.85,8.85,0,0,1-.43-1.61,11.33,11.33,0,0,1,.17-4.53A10.81,10.81,0,0,1,115,177a3.82,3.82,0,0,1,1.24-1.26,2.15,2.15,0,0,1,1.87-.12,7.6,7.6,0,0,1,4.19,6.75,7.52,7.52,0,0,1-.28,2.17,3.84,3.84,0,0,1-1.09,1.84,2.12,2.12,0,0,1-2,.49,2.38,2.38,0,0,1-1.38-1.4,8.75,8.75,0,0,1-.6-3.56,5.45,5.45,0,0,1,.25-1.63,1.87,1.87,0,0,1,1-1.18,1.39,1.39,0,0,1,1.36.19,2.07,2.07,0,0,1,.73,1,3.25,3.25,0,0,1,.11,1.95.87.87,0,0,1-1,.58A.44.44,0,0,1,119.05,182.51Z" style="fill:#fff"></path><path d="M121.61,167.27s-.15.4-.27,1.15a8,8,0,0,0,.2,3.19,20.73,20.73,0,0,0,1.8,4.43,17.88,17.88,0,0,1,2,5.53,10.18,10.18,0,0,1-.94,5.79,9.87,9.87,0,0,1-6,5.09,5.91,5.91,0,0,1-1.16.25l.3-.08c.19-.05.48-.13.84-.25a10.45,10.45,0,0,0,2.85-1.47,9.86,9.86,0,0,0,3-3.63,10.15,10.15,0,0,0,.91-5.68,17.91,17.91,0,0,0-2-5.46,20.67,20.67,0,0,1-1.78-4.48,8,8,0,0,1-.13-3.24A4.58,4.58,0,0,1,121.61,167.27Z" style="fill:#fff"></path><path d="M130.08,169.16a3.09,3.09,0,0,0-1.32,1.75,17.34,17.34,0,0,0-.3,5.42,30,30,0,0,0,.84,5.39c.17.68.33,1.23.44,1.61a3.42,3.42,0,0,1,.16.58,2.79,2.79,0,0,1-.23-.56c-.14-.37-.32-.91-.51-1.59a26.36,26.36,0,0,1-.91-5.42,25.69,25.69,0,0,1,0-3,8.67,8.67,0,0,1,.39-2.45,3.05,3.05,0,0,1,.93-1.39A1.94,1.94,0,0,1,130.08,169.16Z" style="fill:#fff"></path><path d="M133.67,182.09a5.83,5.83,0,0,1-.57-1.1,6.75,6.75,0,0,1-.65-2.92,3.43,3.43,0,0,1,1.26-2.67,2.44,2.44,0,0,1,.82-.42.76.76,0,0,1,.33,0,3.79,3.79,0,0,0-1.06.58,3.5,3.5,0,0,0-1.14,2.57,7.39,7.39,0,0,0,.58,2.85A10.58,10.58,0,0,1,133.67,182.09Z" style="fill:#fff"></path><path d="M116.71,165.51l.08.15c0,.11.12.27.2.47a2.21,2.21,0,0,1,.18.81,2.43,2.43,0,0,1-.28,1.05c-.33.73-.89,1.51-1.42,2.4a20.25,20.25,0,0,0-1.46,3.06,39.74,39.74,0,0,0-1.63,6c-.14.67-.26,1.28-.37,1.84a5.55,5.55,0,0,1-.16.67,3.2,3.2,0,0,1,.08-.69c.06-.44.16-1.07.31-1.85a34.59,34.59,0,0,1,1.58-6,18.76,18.76,0,0,1,1.49-3.08c.55-.9,1.11-1.66,1.45-2.37a2,2,0,0,0,.16-1.76A3.6,3.6,0,0,1,116.71,165.51Z" style="fill:#fff"></path></g><g id="freepik--light-bulb--inject-203"><path d="M281.1,79.25a26.23,26.23,0,1,0-37.66,23.34c0,3.11-.07,6.62-.07,6.62l23,.24s.18-3.72.27-7A26.23,26.23,0,0,0,281.1,79.25Z" style="fill:#92E3A9"></path><path d="M258.05,109.25l0-.32c0-.23.07-.54.12-1,.11-.83.27-2,.52-3.62s.58-3.49,1.1-5.69a37.87,37.87,0,0,1,2.46-7.28,25.06,25.06,0,0,1,2.19-3.9,4.89,4.89,0,0,1,1.81-1.59,2.68,2.68,0,0,1,2.49.11,1.78,1.78,0,0,1,.82,1,1.81,1.81,0,0,1-.12,1.35,3.75,3.75,0,0,1-2.05,1.72,7.13,7.13,0,0,1-5.44-.44,7.26,7.26,0,0,1-3.66-4.42,5.43,5.43,0,0,1-.13-3,2.36,2.36,0,0,1,2.41-1.8,1.69,1.69,0,0,1,1.32.94,2.39,2.39,0,0,1,.2,1.62,5.14,5.14,0,0,1-1.88,2.58,7.78,7.78,0,0,1-6.13,1.71,6.81,6.81,0,0,1-5-3.83,3.92,3.92,0,0,1-.14-3.18,2,2,0,0,1,1.16-1.15,2,2,0,0,1,1.61.17,2.62,2.62,0,0,1,1.1,1.16,4.25,4.25,0,0,1,.38,1.52,7.57,7.57,0,0,1-.43,3A7.83,7.83,0,0,1,249,89.33a8,8,0,0,1-5.44.69,4.09,4.09,0,0,1-2.34-1.28,2,2,0,0,1-.12-2.53,1.71,1.71,0,0,1,1.18-.56,2.43,2.43,0,0,1,1.25.26,3.86,3.86,0,0,1,1.59,1.81c.64,1.43,1.16,2.82,1.68,4.15,2,5.3,3.48,9.68,4.45,12.7.48,1.52.83,2.7,1.07,3.5.12.4.2.7.27.92l.08.31a2.07,2.07,0,0,1-.11-.3l-.3-.91-1.13-3.48c-1-3-2.48-7.37-4.55-12.66-.52-1.32-1-2.72-1.69-4.12a3.54,3.54,0,0,0-1.48-1.69,1.57,1.57,0,0,0-2,2.43,3.85,3.85,0,0,0,2.2,1.17,7.65,7.65,0,0,0,5.23-.67,7.54,7.54,0,0,0,3.59-4.2,7.33,7.33,0,0,0,.41-2.87,2.83,2.83,0,0,0-1.32-2.42,1.67,1.67,0,0,0-1.36-.15,1.7,1.7,0,0,0-1,1,3.63,3.63,0,0,0,.14,2.92,6.53,6.53,0,0,0,4.8,3.65A7.51,7.51,0,0,0,260,85.33a4.79,4.79,0,0,0,1.77-2.4,2.08,2.08,0,0,0-.17-1.41,1.38,1.38,0,0,0-1.08-.77,1.85,1.85,0,0,0-1.31.41,2.33,2.33,0,0,0-.76,1.17,5.22,5.22,0,0,0,.12,2.85,7,7,0,0,0,3.5,4.23,6.89,6.89,0,0,0,5.21.45,3.48,3.48,0,0,0,1.9-1.58,1.55,1.55,0,0,0-.59-2,2.46,2.46,0,0,0-2.24-.1,4.63,4.63,0,0,0-1.72,1.51,25.37,25.37,0,0,0-2.19,3.85A39.6,39.6,0,0,0,260,98.71c-.53,2.19-.88,4.1-1.15,5.67s-.44,2.77-.58,3.61c-.06.4-.11.72-.15.94A2.92,2.92,0,0,1,258.05,109.25Z" style="fill:#263238"></path><path d="M264.55,113.68l-19.74-.2a1.48,1.48,0,0,1-1.46-1.5h0a1.48,1.48,0,0,1,1.49-1.47l19.74.21a1.49,1.49,0,0,1,1.47,1.5h0A1.48,1.48,0,0,1,264.55,113.68Z" style="fill:#263238"></path><path d="M264.54,115l-19.74-.21a1.48,1.48,0,1,0,0,3l2.16,0,2.82,5.5a1.9,1.9,0,0,0,1.67,1l7.06.08a1.92,1.92,0,0,0,1.7-1l2.85-5.43,1.48,0a1.48,1.48,0,0,0,0-3Z" style="fill:#263238"></path><g style="opacity:0.2"><path d="M238.19,62.09a19.21,19.21,0,0,1,5.29-3.44,13.8,13.8,0,0,1,4.06-1.13c1-.1,1.55,0,1.6.22.11.47-1.89,1.16-4.59,2.92A21.59,21.59,0,0,0,234.5,81.74c.33,3.2,1.05,5.18.61,5.4-.19.1-.62-.28-1.17-1.11a13.75,13.75,0,0,1-1.68-3.86,19.07,19.07,0,0,1-.65-6.27,20.41,20.41,0,0,1,1.91-7.57" style="fill:#fff"></path></g><g style="opacity:0.2"><path d="M255.43,58.93c-1.66,0-3.12-.5-3.28-1.38-.07-.44.24-.9.85-1.26a5,5,0,0,1,2.48-.58,4.85,4.85,0,0,1,2.47.66c.6.37.89.85.81,1.28" style="fill:#fff"></path></g><path d="M259.81,123.81a13.24,13.24,0,0,1-1.35-.43,11,11,0,0,0-6.67.12,13.1,13.1,0,0,1-1.34.48,4.63,4.63,0,0,1,1.26-.69,9.62,9.62,0,0,1,6.82-.13A3.89,3.89,0,0,1,259.81,123.81Z" style="fill:#455a64"></path><path d="M263.07,118c0,.09-3.57.13-8,.08s-8-.16-8-.24,3.57-.13,8-.08S263.07,117.9,263.07,118Z" style="fill:#455a64"></path><path d="M261.81,120.32a12.13,12.13,0,0,1-1.94.18c-1.21.06-2.87.11-4.71.12s-3.51,0-4.71-.09a11.3,11.3,0,0,1-1.95-.16,12.07,12.07,0,0,1,1.95-.07h4.71l4.7,0A11,11,0,0,1,261.81,120.32Z" style="fill:#455a64"></path><path d="M224.61,59.68A49.51,49.51,0,0,1,218,56.89a48.52,48.52,0,0,1-6.34-3.25,48.19,48.19,0,0,1,6.56,2.78A49,49,0,0,1,224.61,59.68Z" style="fill:#263238"></path><path d="M238.61,47.48a21,21,0,0,1-2.08-2.79c-1.23-1.77-2.87-4.25-4.61-7s-3.24-5.35-4.29-7.22a20.89,20.89,0,0,1-1.59-3.1A25.74,25.74,0,0,1,228,30.25l4.41,7.13,4.47,7.11A23.7,23.7,0,0,1,238.61,47.48Z" style="fill:#263238"></path><path d="M254,29.66a54.2,54.2,0,0,1,.5,7.48,52.36,52.36,0,0,1,0,7.49,55.24,55.24,0,0,1-.49-7.48A55.24,55.24,0,0,1,254,29.66Z" style="fill:#263238"></path><path d="M280.52,26.23c.13.06-1.94,4.74-4.63,10.44s-5,10.28-5.1,10.22,1.94-4.73,4.63-10.44S280.39,26.17,280.52,26.23Z" style="fill:#263238"></path><path d="M291.75,47.48a47.32,47.32,0,0,1-5.3,4.54,47.64,47.64,0,0,1-5.62,4.14,46.85,46.85,0,0,1,5.3-4.55A47.23,47.23,0,0,1,291.75,47.48Z" style="fill:#263238"></path></g><g id="freepik--Cursor--inject-203"><polygon points="348.99 252.25 352.31 269.89 355.04 264.97 360.91 273.76 363.84 271.78 357.98 262.99 363.36 262.16 348.99 252.25" style="fill:#263238"></polygon></g><g id="freepik--Character--inject-203"><path d="M292.83,261.44c6.9-3.39,11.1-10.63,13.5-17.93s3.42-15,6.11-22.22c2-5.37-.53-13.8,4.18-17.07,5.88-4.09,5.58-14.59,3.16-19.78-2.64-5.65-9.55-9.74-10.06-11.53-1.32-4.72,2.69-10,1.06-14.58-3.86-10.85-12.73-9.21-12.73-9.21-4.18-4.83-9.81-11.2-18.78-13.31-9.71-2.28-24-3.81-32.48,1.45s-14.72,8.78-17.28,18.42" style="fill:#263238"></path><path d="M300.14,194.53a47,47,0,0,0-47.06-42.95h-2.43c-26.22,1.68-39.44,24.88-37,51l1.21,131.65,65.35-.11-1.66-50.44s25.2-4.05,25.37-29.26C304,242.29,302.1,217.21,300.14,194.53Z" style="fill:#ffbe9d"></path><path d="M289,213.47a3.61,3.61,0,0,1-3.46,3.65,3.43,3.43,0,0,1-3.72-3.22,3.6,3.6,0,0,1,3.44-3.66A3.46,3.46,0,0,1,289,213.47Z" style="fill:#263238"></path><path d="M295.16,205.56c-.44.47-3.18-1.53-7.06-1.5s-6.7,2-7.12,1.51c-.21-.21.24-1.06,1.47-2a9.91,9.91,0,0,1,5.7-1.79,9.49,9.49,0,0,1,5.62,1.78C295,204.5,295.38,205.35,295.16,205.56Z" style="fill:#263238"></path><path d="M252.61,213.47a3.59,3.59,0,0,1-3.45,3.65,3.44,3.44,0,0,1-3.73-3.22,3.62,3.62,0,0,1,3.45-3.66A3.44,3.44,0,0,1,252.61,213.47Z" style="fill:#263238"></path><path d="M256.55,204.68c-.39.51-3.33-1.18-7.18-.73s-6.44,2.7-6.92,2.28c-.22-.19.13-1.08,1.26-2.12a9.91,9.91,0,0,1,5.47-2.4,9.5,9.5,0,0,1,5.78,1.16C256.24,203.65,256.74,204.44,256.55,204.68Z" style="fill:#263238"></path><path d="M270.93,236.47c0-.22,2.39-.65,6.29-1.17,1-.11,1.92-.31,2.08-1s-.19-1.78-.67-2.93c-.95-2.39-1.93-4.89-3-7.51-4.12-10.71-7.11-19.51-6.68-19.67s4.13,8.38,8.25,19.08l2.84,7.56c.38,1.13,1,2.4.54,3.88a2.51,2.51,0,0,1-1.62,1.46,6.46,6.46,0,0,1-1.68.24C273.38,236.65,271,236.69,270.93,236.47Z" style="fill:#263238"></path><path d="M256.35,188.94c-.44,1-4.27.3-8.84.58s-8.31,1.3-8.86.32c-.24-.47.46-1.42,2-2.35a15.36,15.36,0,0,1,13.48-.68C255.76,187.58,256.55,188.45,256.35,188.94Z" style="fill:#263238"></path><path d="M293.31,195.68c-.68.88-3.36,0-6.56,0s-5.93.62-6.56-.3c-.27-.44.15-1.32,1.33-2.16a9.51,9.51,0,0,1,10.57.27C293.23,194.34,293.6,195.25,293.31,195.68Z" style="fill:#263238"></path><path d="M231.34,153.84a19.07,19.07,0,0,0,22.94,18.33c4.24-.88,8.86-3.13,12.6-.95,3.93,2.3,4.23,8.15,7.73,11.06,5,4.15,12.74,0,19,1.68,4.85,1.32,8,5.86,11.26,9.67s8.16,7.38,13,5.84a56.51,56.51,0,0,0-2.2-12.82c-1.38-4.12-3.85-8-7.54-10.31-2-1.26-4.36-2-6.25-3.45-4.07-3.14-5.12-8.74-7.7-13.2A20.92,20.92,0,0,0,278,149.48c-5.49-.43-11.11,1.34-16.49.11-4-.9-7.49-3.39-11.51-4.06-7.83-1.31-15,4.45-20.48,10.15" style="fill:#263238"></path><path d="M256.55,164.37c-3.52-.92-10.72-3-12.67-6-4.22-6.5-11.5-10.83-18.83-10.27a17.65,17.65,0,0,0-15.57,14.31c-8.87.26-17.41,6-21.48,14.52a29.41,29.41,0,0,0,1.41,27.33c1.29,2.09,2.91,4.17,3,6.67.11,3.11-2.13,5.62-3.69,8.22-4.26,7.1-3.71,16.71-.12,24.25s6.05,10.17,11,11.59c9.58,2.77.55,22.12,16.38,21.77L217.84,220a6,6,0,0,0,1.5.51c9.42,1.91,10.24-16.42,8-21.61,3.32-3.08,6.68-6.21,9.18-10.1s4.54-14.36,3.89-19C243.82,169.85,258.1,164.78,256.55,164.37Z" style="fill:#263238"></path><path d="M219.17,220.31c-.43-.19-17.35-5-16.71,12.2s17.82,13,17.83,12.53S219.17,220.31,219.17,220.31Z" style="fill:#ffbe9d"></path><path d="M214.78,238.71c-.08-.05-.29.22-.79.47a2.94,2.94,0,0,1-2.24.13c-1.85-.6-3.49-3.43-3.69-6.53a10,10,0,0,1,.68-4.33,3.48,3.48,0,0,1,2.17-2.39,1.53,1.53,0,0,1,1.8.76c.25.47.16.82.25.85s.36-.31.19-1a1.91,1.91,0,0,0-.72-1.06,2.22,2.22,0,0,0-1.67-.37,4.2,4.2,0,0,0-3,2.78,10.21,10.21,0,0,0-.86,4.85c.24,3.46,2.14,6.65,4.66,7.27a3.22,3.22,0,0,0,2.73-.56C214.76,239.13,214.84,238.74,214.78,238.71Z" style="fill:#eb996e"></path><path d="M191.19,248.43a10.69,10.69,0,0,1-1.57,16.26,7.06,7.06,0,0,0,5.27,1.67c.72,2.16-2.3,3.71-2.87,5.91a3.9,3.9,0,0,0,1.29,3.68,9.53,9.53,0,0,0,3.59,1.89,38.63,38.63,0,0,0,12,2c2.37,0,5-.32,6.51-2.16,1.23-1.53,1.3-3.67,1.32-5.64q0-7.35.1-14.7a7,7,0,0,0-.86-4.18c-1-1.34-2.72-1.8-4.33-2.17l-21-4.86" style="fill:#263238"></path><path d="M278.51,283.73s-23-3-36.63-12.9c0,0,7.53,20.86,36.78,20.8Z" style="fill:#eb996e"></path><path d="M257.89,238.36c.63-.08.93,4.12,4.74,6.86s8.25,1.95,8.33,2.54c.08.26-.94.88-2.83,1.07A10.51,10.51,0,0,1,261.2,247a9.18,9.18,0,0,1-3.71-5.77C257.21,239.43,257.6,238.36,257.89,238.36Z" style="fill:#263238"></path><path d="M195.33,211.71a3.28,3.28,0,0,1-.59-.43,6.49,6.49,0,0,1-1.28-1.66,9.09,9.09,0,0,1-.12-7.53,12.53,12.53,0,0,1,3.13-4.3,26.43,26.43,0,0,1,5-3.51c1.86-1.06,3.87-2,5.86-3.21a20.13,20.13,0,0,0,5.49-4.42,22.29,22.29,0,0,0,3.4-6.2c.84-2.15,1.51-4.29,2.33-6.28a23.62,23.62,0,0,1,2.9-5.36,11.8,11.8,0,0,1,4-3.48,8.74,8.74,0,0,1,7.52-.25,6.09,6.09,0,0,1,1.68,1.24,2.78,2.78,0,0,1,.44.59,6.78,6.78,0,0,0-2.21-1.64,8.56,8.56,0,0,0-7.26.39,11.46,11.46,0,0,0-3.84,3.41,23,23,0,0,0-2.81,5.28c-.79,2-1.45,4.11-2.29,6.28A22.38,22.38,0,0,1,213.2,187a20.47,20.47,0,0,1-5.63,4.53c-2,1.18-4,2.15-5.89,3.19a26.21,26.21,0,0,0-4.92,3.41,12.26,12.26,0,0,0-3.08,4.13,9,9,0,0,0,0,7.29A7.36,7.36,0,0,0,195.33,211.71Z" style="fill:#455a64"></path><path d="M303.07,206.06s.06-.09.21-.25l.64-.69a29.47,29.47,0,0,0,2.21-2.84,25.62,25.62,0,0,0,4.26-12.37,24.2,24.2,0,0,0-1.12-9,25.31,25.31,0,0,0-5.13-9,28.36,28.36,0,0,0-4.2-3.79,33.65,33.65,0,0,1-4.53-3.91,15.91,15.91,0,0,1-3.06-5.41,21.65,21.65,0,0,0-2.72-5.62,6.65,6.65,0,0,0-2.39-1.89,7.31,7.31,0,0,0-2.95-.64,14.93,14.93,0,0,0-5.86,1.37c-1.84.79-3.59,1.77-5.4,2.51a13.56,13.56,0,0,1-5.63,1.24,11.7,11.7,0,0,1-5.23-1.64,28.36,28.36,0,0,0-4.57-2.19,14.21,14.21,0,0,0-8.91.14,13.25,13.25,0,0,0-6,4.25,14.53,14.53,0,0,0-2.61,5,14.16,14.16,0,0,0-.57,3.54c0,.83,0,1.26,0,1.26a7.67,7.67,0,0,1-.08-1.26,12.86,12.86,0,0,1,.48-3.59,14.4,14.4,0,0,1,2.57-5.13,13.45,13.45,0,0,1,6.15-4.41,14.54,14.54,0,0,1,9.16-.21,28.93,28.93,0,0,1,4.66,2.19,11.21,11.21,0,0,0,5,1.57,13.18,13.18,0,0,0,5.42-1.22c1.78-.74,3.51-1.71,5.39-2.52a15.31,15.31,0,0,1,6.06-1.42,8,8,0,0,1,3.17.68,7.21,7.21,0,0,1,2.57,2.05,21.39,21.39,0,0,1,2.8,5.75,15.53,15.53,0,0,0,3,5.26,33.28,33.28,0,0,0,4.46,3.86,28.45,28.45,0,0,1,4.24,3.86,25.33,25.33,0,0,1,5.19,9.2,24.16,24.16,0,0,1,1.07,9.15,24.69,24.69,0,0,1-1.73,7.4,24.28,24.28,0,0,1-2.72,5A19,19,0,0,1,303.07,206.06Z" style="fill:#455a64"></path><path d="M113.36,392.71s27.54-80.1,32.5-83.82C162,296.79,214,287.43,214,287.43s13.07,34.5,37.11,34.25c24.22-.25,32-26.16,32-26.16s34.41-1.41,48.39,5.29c5.59,2.68,42.53,75.58,42.53,75.58l-40.45,16.26,11.29,82.56-203.15.09,1.93-81.88Z" style="fill:#455a64"></path><path d="M162.09,330.87c-.1.1-3.58-3.11-7.76-7.17s-7.5-7.43-7.4-7.53,3.57,3.1,7.76,7.16A104.63,104.63,0,0,1,162.09,330.87Z" style="fill:#263238"></path><path d="M219,298.2c0,.14-1.22.55-2.63,1.34a27.24,27.24,0,0,1-2.53,1.51,5.33,5.33,0,0,1,2.28-2A5.19,5.19,0,0,1,219,298.2Z" style="fill:#263238"></path><path d="M221.78,312.46a3.76,3.76,0,0,1,1.1-2.63,3.68,3.68,0,0,1,2.4-1.52c.07.14-1.05.71-2,1.86S221.93,312.5,221.78,312.46Z" style="fill:#263238"></path><path d="M228.69,319.37a6.72,6.72,0,0,1,1.15-2.4,7.23,7.23,0,0,1,1.61-2.13,13.76,13.76,0,0,1-2.76,4.53Z" style="fill:#263238"></path><path d="M241.57,325a10.24,10.24,0,0,1,.69-4.51,5.32,5.32,0,0,1-.09,2.3C242,324,241.72,325,241.57,325Z" style="fill:#263238"></path><path d="M253.35,327c-.15,0-.24-1.38-.67-3s-1-2.88-.89-3a7.89,7.89,0,0,1,1.56,6Z" style="fill:#263238"></path><path d="M266.58,325c-.15,0-.39-1.52-1-3.32a30.87,30.87,0,0,1-1.11-3.28,7.47,7.47,0,0,1,1.61,3.12A7.3,7.3,0,0,1,266.58,325Z" style="fill:#263238"></path><path d="M276.31,318c-.16,0-.39-1.54-1.36-3.17s-2.22-2.6-2.12-2.73a5.32,5.32,0,0,1,2.57,2.47A5.25,5.25,0,0,1,276.31,318Z" style="fill:#263238"></path><path d="M195.67,305.47a1.84,1.84,0,0,1,.21.24l.63.77,2.41,3c2.11,2.68,5.08,6.43,8.63,10.92l.11.14-.12.14-12,14.9-.2.25-.21-.25-.1-.13-11.83-14.78-.11-.14.11-.14,9-10.9,2.52-3,.66-.77a1.64,1.64,0,0,1,.23-.24,3,3,0,0,1-.23.31l-.65.84-2.47,3.12c-2.14,2.69-5.15,6.44-8.74,10.93v-.28l11.89,14.74.1.12h-.41l12-14.85v.28l-8.34-10.94c-1-1.31-1.77-2.36-2.35-3.12l-.62-.84A2.48,2.48,0,0,1,195.67,305.47Z" style="fill:#fafafa"></path><path d="M172.39,297.3a4,4,0,0,1-.57.86c-.39.54-1,1.31-1.71,2.25-1.46,1.89-3.5,4.47-5.79,7.3l-2.4,3-.2.24-.19-.24c-1.69-2.13-3.13-4-4.13-5.29a18.22,18.22,0,0,1-1.54-2.16,14.55,14.55,0,0,1,1.78,2c1.07,1.27,2.56,3.07,4.28,5.17h-.39l2.39-3c2.28-2.83,4.37-5.37,5.91-7.2.76-.91,1.39-1.64,1.83-2.14S172.36,297.27,172.39,297.3Z" style="fill:#fafafa"></path><path d="M122.26,366.76a4.54,4.54,0,0,1,.59.65l1.57,1.92,5.52,6.93h-.35l8.13-10.13,3.85-4.76v.31c-3.3-4.32-6.19-8.08-8.3-10.84-1-1.31-1.78-2.39-2.39-3.19a10.22,10.22,0,0,1-.81-1.19,7.77,7.77,0,0,1,.95,1.08l2.51,3.1L142,361.36l.13.16-.13.16c-1.21,1.51-2.51,3.11-3.84,4.76l-8.18,10.09-.18.22-.17-.22-5.37-7-1.47-2A3.9,3.9,0,0,1,122.26,366.76Z" style="fill:#fafafa"></path><path d="M201.91,386.16a1.47,1.47,0,0,1,.24.22l.71.7,2.7,2.74c2.39,2.44,5.73,5.86,9.72,10l.12.12-.09.15L205,416.12l-.18.27-.22-.23-.12-.11-13.3-13.47-.13-.13.1-.16,7.84-11.78c.93-1.36,1.66-2.45,2.2-3.25l.57-.83a1.86,1.86,0,0,1,.2-.27,2.51,2.51,0,0,1-.19.34l-.56.9L199,390.76l-7.55,11.78,0-.28,13.35,13.42.11.11-.4,0,10.42-16,0,.28c-3.88-4.12-7.12-7.56-9.44-10l-2.66-2.86-.7-.77Z" style="fill:#fafafa"></path><path d="M168.71,381.05a4.09,4.09,0,0,1,.76.64l2,1.91-.23,0c1.9-3.06,5.08-8.05,8.72-13.67l1.58-2.43,0,.31c-3.35-3.5-6.28-6.6-8.37-8.85l-2.44-2.65a7,7,0,0,1-.84-1,6.32,6.32,0,0,1,1,.88l2.56,2.55c2.15,2.18,5.13,5.24,8.49,8.73l.14.14-.11.18-1.58,2.43c-3.63,5.62-6.89,10.57-8.9,13.55l-.1.16-.13-.13-1.94-2A4.77,4.77,0,0,1,168.71,381.05Z" style="fill:#fafafa"></path><path d="M241.1,420.57a1.47,1.47,0,0,1,.24.22l.7.7,2.71,2.74,9.72,9.95.12.13-.1.15c-3,4.68-6.56,10.19-10.36,16.06l-.17.28-.23-.23-.11-.12L230.31,437l-.13-.14.1-.15,7.85-11.78,2.19-3.25.58-.84a2,2,0,0,1,.2-.26l-.19.33-.57.91-2.12,3.36L230.66,437l0-.28L244,450.09l.11.11-.4,0c3.81-5.86,7.38-11.36,10.42-16l0,.27-9.43-10-2.66-2.86-.71-.77A2.5,2.5,0,0,1,241.1,420.57Z" style="fill:#fafafa"></path><path d="M286.33,375.36a1.47,1.47,0,0,1,.24.22l.71.7L290,379l9.72,10,.12.12-.09.15-10.36,16.07-.18.27-.23-.23-.11-.11c-4.86-4.93-9.42-9.54-13.31-13.47l-.13-.13.11-.16,7.84-11.78c.92-1.36,1.66-2.45,2.19-3.25l.58-.83a1.86,1.86,0,0,1,.2-.27,2.51,2.51,0,0,1-.19.34c-.15.24-.34.53-.56.9L283.45,380l-7.56,11.78,0-.28,13.35,13.42.11.11-.4,0c3.81-5.86,7.38-11.36,10.42-16l0,.28c-3.87-4.12-7.11-7.56-9.43-10l-2.66-2.86-.71-.77A2.5,2.5,0,0,1,286.33,375.36Z" style="fill:#fafafa"></path><path d="M325.44,311a1.47,1.47,0,0,1,.24.22l.71.7,2.7,2.74c2.39,2.44,5.73,5.86,9.72,10l.13.12-.1.15L328.48,341l-.17.27-.23-.23-.11-.11-13.31-13.47-.13-.13.1-.16,7.85-11.78,2.19-3.25.57-.83.2-.27a1.61,1.61,0,0,1-.19.34l-.56.9-2.13,3.36L315,327.4l0-.28,13.36,13.42.11.11-.41,0c3.82-5.86,7.39-11.36,10.42-16l0,.28-9.43-10-2.66-2.86-.71-.77Z" style="fill:#fafafa"></path><path d="M371.21,370.89a4.19,4.19,0,0,1-.45.73l-1.4,2c-1.27,1.75-3,4.12-5.06,6.93l-.13.17-.18-.11-9.38-5.88-2.95-1.87-.23-.14.15-.22,7.64-11.53c.94-1.39,1.72-2.53,2.31-3.39a8.22,8.22,0,0,1,.89-1.19,10.72,10.72,0,0,1-.74,1.29c-.55.89-1.28,2.05-2.17,3.47-1.93,3-4.55,7.05-7.5,11.64l-.08-.36,3,1.86,9.35,5.93-.31.06,5.22-6.82,1.49-1.89A3.55,3.55,0,0,1,371.21,370.89Z" style="fill:#fafafa"></path><path d="M247.06,336.14l.24.22.71.7,2.7,2.74c2.39,2.44,5.73,5.86,9.72,10l.13.12-.1.16c-3,4.67-6.57,10.18-10.36,16.06l-.17.27-.23-.23-.11-.11-13.31-13.47-.13-.13.1-.15,7.85-11.79,2.19-3.25.57-.83.2-.27a1.37,1.37,0,0,1-.19.34l-.56.9-2.13,3.36c-1.85,2.9-4.45,6.94-7.55,11.78l0-.28L250,365.66l.11.11-.41.05,10.42-16,0,.28-9.43-10L248,337.2l-.71-.77Z" style="fill:#fafafa"></path><g style="opacity:0.30000000000000004"><path d="M170.12,356.7c-1.92,23.64-3.49,46.73-5.94,70.38l1.35.22C173.06,404.85,172.3,380.28,170.12,356.7Z"></path></g><path d="M170.43,347.87c.14,0-.51,12.26-1.46,27.36s-1.84,27.35-2,27.34.51-12.26,1.46-27.37S170.28,347.86,170.43,347.87Z" style="fill:#263238"></path><g style="opacity:0.30000000000000004"><path d="M309.09,398.78c-5.37-25.65-12.8-50.8-20.24-75.92-1.14-3.87-2.32-7.81-4.54-11.18s-5.68-6.16-9.69-6.58l.29,5.17c7,22,8.92,45.27,13.36,68s11.88,45.68,27.7,62.52Q313.45,419.62,309.09,398.78Z"></path></g><path d="M322.28,437.94c-4.71,0-32.42,10.08-32.42,10.08s-90.32-15.18-125.71-21l3.14-32.93-46.11-1.2-9.4,39.16-.14.52a44.09,44.09,0,0,0,3.89,32.47c3.1,5.6,8.12,11.4,13.19,11.4,27.19,0,169.74.1,169.74.1l22.78-.34c4.71-3.67,1.57-1,5.76-.52s17.83-.52,17.83-.52,7.86-.53,10.49-4.72,6.29-14.68,6.29-16.26S327,437.94,322.28,437.94Z" style="fill:#ffbe9d"></path><path d="M339.62,460.63a4,4,0,0,1-.78.51c-.52.31-1.27.74-2.21,1.27-1.88,1-4.48,2.46-7.37,4a31.54,31.54,0,0,0-4,2.29,4.64,4.64,0,0,0-2,2.93,3.3,3.3,0,0,0,.44,2.35,6.3,6.3,0,0,0,.62.67s-.08,0-.23-.09a2.53,2.53,0,0,1-.53-.47,3.33,3.33,0,0,1-.62-2.5,4,4,0,0,1,.62-1.71,6.29,6.29,0,0,1,1.41-1.52,29.4,29.4,0,0,1,4-2.35c2.89-1.55,5.52-2.92,7.44-3.9.95-.49,1.73-.87,2.28-1.13A3.38,3.38,0,0,1,339.62,460.63Z" style="fill:#eb996e"></path><path d="M345.66,463.66c0,.06-.43.15-1.12.11a6.33,6.33,0,0,1-2.61-.78,6.22,6.22,0,0,1-2.06-1.78,2.15,2.15,0,0,1-.52-1,12.9,12.9,0,0,0,2.8,2.38A12.51,12.51,0,0,0,345.66,463.66Z" style="fill:#eb996e"></path><path d="M164.78,427c0,.1-2,.3-5.07,1.11a40,40,0,0,0-5.31,1.79,45.93,45.93,0,0,0-6.11,3.12,47.48,47.48,0,0,0-5.51,4.08,43.31,43.31,0,0,0-4,4c-2.1,2.42-3.15,4.11-3.24,4.05a7.09,7.09,0,0,1,.7-1.21,16,16,0,0,1,.93-1.36c.38-.51.8-1.11,1.33-1.72a38.07,38.07,0,0,1,3.92-4.09,39.77,39.77,0,0,1,11.76-7.29,37.48,37.48,0,0,1,5.4-1.7c.78-.21,1.5-.31,2.13-.43s1.18-.19,1.63-.23A7,7,0,0,1,164.78,427Z" style="fill:#eb996e"></path><path d="M294.89,274.46s-7.75-3-6.65-6.9a14.77,14.77,0,0,1,4.06-6.47s5.8-7.53,7.81-7.78,4.22,2.32,4.22,2.32,3.82-3,6.5-1.53a92.32,92.32,0,0,1,8,5.45s7.17.15,8.21,2.23,4.9,12.47,4.9,12.47-.45,7.28-3.09,9.11c-2.09,1.46-18.92,16.12-18.92,16.12s25.09,53.88,33.8,70.6c6.68,12.83,32.74,52.37,33,58.78s3.2,15.41-1.59,20.63-5,18.37-15.94,20.32-10.89,3.4-17.46-1.35-28.56-17.78-36.38-61.09-26.54-95.44-26.54-95.44-7.2-10.13-7.08-11.72-.48-9.22,5.41-13.15S294.89,274.46,294.89,274.46Z" style="fill:#ffbe9d"></path><path d="M314.39,278.78s.35-.26,1-.76a16.22,16.22,0,0,0,2.32-2.39,36.9,36.9,0,0,0,2.74-4.15,23.1,23.1,0,0,0,1.4-2.56,5.53,5.53,0,0,0,.49-3,5.89,5.89,0,0,0-1.33-2.72,21.32,21.32,0,0,0-2-2.1c-1.36-1.29-2.56-2.48-3.62-3.43s-1.94-1.68-2.56-2.17a7.53,7.53,0,0,1-.95-.8,6.61,6.61,0,0,1,1.05.67,32.92,32.92,0,0,1,2.66,2.08c1.08.93,2.31,2.1,3.68,3.38A21,21,0,0,1,321.3,263a6.16,6.16,0,0,1,1.41,2.91,5.74,5.74,0,0,1-.52,3.2,22,22,0,0,1-1.44,2.6,33.67,33.67,0,0,1-2.85,4.13,13.65,13.65,0,0,1-2.44,2.34,8.25,8.25,0,0,1-.78.5C314.5,278.75,314.4,278.8,314.39,278.78Z" style="fill:#eb996e"></path><path d="M327,261.78s-.1-.17-.36-.43a4.44,4.44,0,0,0-1.45-.79,22.9,22.9,0,0,0-6.4-.94h0l0,0c-1.66-1.22-3.63-2.67-6-4.2-1.17-.69-2.4-1.77-4-1.57a9.11,9.11,0,0,0-4.42,1.9l-.09.06-.07-.08a8,8,0,0,0-2.75-2.05,2.37,2.37,0,0,0-1.69-.12,6.61,6.61,0,0,0-1.51,1.05,51,51,0,0,0-5.36,5.93,21.64,21.64,0,0,0-2.37,3.54,17.34,17.34,0,0,0-1.62,4.1,2.48,2.48,0,0,0-.06.54l0,.54a4.27,4.27,0,0,0,.41,1,6.38,6.38,0,0,0,1.5,1.7A15.76,15.76,0,0,0,295,274.3l.28.12-.24.18q-4.46,3.24-9.28,6.71l-4.94,3.49-2.55,1.76c-.42.29-.88.57-1.28.89l-.61.46c-.21.16-.38.36-.57.53a11.74,11.74,0,0,0-3.1,5.41,23.2,23.2,0,0,0-.71,6.47,6,6,0,0,0,.57,1.47c.26.49.53,1,.82,1.46.56,1,1.16,1.92,1.78,2.87,1.23,1.91,2.53,3.8,3.86,5.69l0,0v0c3.35,9.5,6.65,19.58,9.87,30,2.87,9.3,5.51,18.42,7.88,27.28,1.21,4.42,2.29,8.79,3.37,13.07s2,8.49,2.89,12.62,1.67,8.15,2.43,12.07c.4,1.95.8,3.88,1.19,5.77.21,1,.37,1.89.61,2.81s.49,1.83.73,2.74.49,1.79.73,2.68c.11.45.23.89.35,1.33s.29.86.43,1.29l1.68,5c.65,1.61,1.29,3.18,1.91,4.73.15.39.31.77.46,1.15l.53,1.11,1,2.18a83.18,83.18,0,0,0,9,14.58,72.71,72.71,0,0,0,8.9,9.41,74.93,74.93,0,0,0,6.43,5.07l1.73,1.25.58.44-.61-.4-1.75-1.22a70.76,70.76,0,0,1-15.46-14.41,82.6,82.6,0,0,1-9.07-14.59q-.53-1.08-1.05-2.19c-.18-.36-.36-.74-.54-1.11s-.31-.76-.46-1.15l-1.92-4.74q-.84-2.49-1.7-5c-.15-.43-.29-.86-.44-1.3l-.36-1.33c-.24-.88-.48-1.78-.73-2.69s-.49-1.81-.74-2.74-.4-1.87-.61-2.81q-.6-2.85-1.21-5.78c-.77-3.92-1.51-7.95-2.44-12.06s-1.89-8.31-2.9-12.61-2.17-8.64-3.38-13.06c-2.38-8.85-5-18-7.88-27.26-3.22-10.4-6.52-20.47-9.86-30l0,.05c-1.33-1.9-2.63-3.8-3.86-5.71-.62-1-1.22-1.92-1.79-2.89-.29-.49-.56-1-.82-1.48a5.64,5.64,0,0,1-.62-1.64,23.7,23.7,0,0,1,.73-6.58,12.09,12.09,0,0,1,3.21-5.58c.2-.18.38-.38.59-.54l.64-.49c.42-.33.86-.59,1.29-.89l2.54-1.75L285.5,281l9.29-6.69,0,.29a16.28,16.28,0,0,1-4.2-2.41,6.76,6.76,0,0,1-1.58-1.79,4.36,4.36,0,0,1-.44-1.12l-.05-.6a3.07,3.07,0,0,1,.07-.6,17.62,17.62,0,0,1,1.66-4.18,21.55,21.55,0,0,1,2.41-3.58,50.46,50.46,0,0,1,5.42-5.94,6.64,6.64,0,0,1,1.58-1.09,2.54,2.54,0,0,1,1.88.12,8,8,0,0,1,2.83,2.13l-.16,0a9.46,9.46,0,0,1,4.55-1.93,3.77,3.77,0,0,1,2.25.5c.65.36,1.26.75,1.84,1.13,2.34,1.55,4.3,3,5.94,4.25h0a22.53,22.53,0,0,1,6.42,1,4.11,4.11,0,0,1,1.45.84,1.26,1.26,0,0,1,.26.33Z" style="fill:#eb996e"></path><path d="M302.07,269.31a1.46,1.46,0,0,1-.1.56,5.86,5.86,0,0,1-.64,1.38,6.59,6.59,0,0,1-8.95,2.26,6.36,6.36,0,0,1-1.23-.92c-.25-.26-.36-.43-.34-.44a19.62,19.62,0,0,0,1.7,1.1,7,7,0,0,0,4.7.56,6.86,6.86,0,0,0,3.87-2.72C301.8,270.07,302,269.29,302.07,269.31Z" style="fill:#eb996e"></path><path d="M304.66,280.14s.39-.24,1.06-.69a16.06,16.06,0,0,0,2.56-2.26,40.06,40.06,0,0,0,3.14-4,18.3,18.3,0,0,0,1.6-2.52,5,5,0,0,0,.57-3,6.51,6.51,0,0,0-1.31-2.83c-.6-.83-1.3-1.56-1.93-2.3-1.26-1.46-2.32-2.83-3.26-3.94s-1.74-2-2.32-2.53a9.87,9.87,0,0,1-.9-.9,1.15,1.15,0,0,1,.28.19c.17.12.42.33.72.59a28.31,28.31,0,0,1,2.44,2.46c1,1.09,2.06,2.44,3.33,3.88.63.72,1.34,1.45,2,2.31a6.92,6.92,0,0,1,1.39,3,5.46,5.46,0,0,1-.61,3.26,18.82,18.82,0,0,1-1.66,2.56,34.9,34.9,0,0,1-3.24,4,13.78,13.78,0,0,1-2.69,2.19,6.45,6.45,0,0,1-.83.44A1.15,1.15,0,0,1,304.66,280.14Z" style="fill:#eb996e"></path></g><g id="freepik--Desk--inject-203"><path d="M449.8,476.5c0,.14-88.1.26-196.74.26S56.3,476.64,56.3,476.5s88.08-.26,196.76-.26S449.8,476.35,449.8,476.5Z" style="fill:#263238"></path></g></svg>